<svg width="14" height="10" viewBox="0 0 14 10" fill="none" xmlns="http://www.w3.org/2000/svg">
<path fill-rule="evenodd" clip-rule="evenodd" d="M8.29697e-05 4.50035C8.29697e-05 4.63295 0.0527611 4.76013 0.146529 4.8539C0.240297 4.94767 0.367475 5.00035 0.500083 5.00035L12.2931 5.00035L9.14608 8.14634C9.0996 8.19283 9.06272 8.24802 9.03756 8.30876C9.0124 8.3695 8.99945 8.4346 8.99945 8.50034C8.99945 8.56609 9.0124 8.63119 9.03756 8.69193C9.06272 8.75267 9.0996 8.80786 9.14608 8.85435C9.19257 8.90083 9.24776 8.93771 9.3085 8.96287C9.36924 8.98803 9.43434 9.00098 9.50008 9.00098C9.56583 9.00098 9.63093 8.98803 9.69167 8.96287C9.75241 8.93771 9.8076 8.90083 9.85408 8.85435L13.8541 4.85435C13.9006 4.8079 13.9376 4.75272 13.9628 4.69198C13.988 4.63123 14.001 4.56611 14.001 4.50035C14.001 4.43458 13.988 4.36946 13.9628 4.30871C13.9376 4.24797 13.9006 4.19279 13.8541 4.14635L9.85408 0.146345C9.8076 0.0998573 9.75241 0.0629807 9.69167 0.0378218C9.63093 0.0126629 9.56583 -0.000286102 9.50008 -0.000286102C9.43434 -0.000286102 9.36924 0.0126629 9.3085 0.0378218C9.24776 0.0629807 9.19257 0.0998573 9.14608 0.146345C9.0996 0.192833 9.06272 0.248022 9.03756 0.308762C9.0124 0.369501 8.99945 0.434602 8.99945 0.500345C8.99945 0.566089 9.0124 0.631189 9.03756 0.691929C9.06272 0.752668 9.0996 0.807858 9.14608 0.854345L12.2931 4.00035L0.500083 4.00035C0.367475 4.00035 0.240297 4.05302 0.146529 4.14679C0.0527611 4.24056 8.29697e-05 4.36774 8.29697e-05 4.50035Z" fill="#333333"/>
</svg>
