<svg width="37" height="37" viewBox="0 0 37 37" fill="none" xmlns="http://www.w3.org/2000/svg">
<path fill-rule="evenodd" clip-rule="evenodd" d="M18.5 36.875C28.6482 36.875 36.875 28.6482 36.875 18.5C36.875 8.35177 28.6482 0.125 18.5 0.125C8.35177 0.125 0.125 8.35177 0.125 18.5C0.125 28.6482 8.35177 36.875 18.5 36.875ZM27.4355 13.0152C27.789 12.5909 27.7317 11.9603 27.3074 11.6068C26.8831 11.2532 26.2526 11.3105 25.899 11.7348L17.0927 22.3024C16.746 22.7184 16.5511 22.9488 16.3955 23.0903L16.3895 23.0957L16.3831 23.0909C16.2153 22.964 16.0004 22.7522 15.6174 22.3693L11.041 17.7929C10.6505 17.4024 10.0173 17.4024 9.6268 17.7929C9.23628 18.1834 9.23627 18.8166 9.6268 19.2071L14.2032 23.7835L14.244 23.8243L14.244 23.8244C14.5705 24.151 14.8846 24.4652 15.1768 24.6861C15.5042 24.9337 15.9329 25.1665 16.4823 25.1415C17.0317 25.1166 17.4376 24.846 17.7412 24.5698C18.0123 24.3233 18.2966 23.9819 18.5922 23.6271L18.5922 23.6271L18.6292 23.5827L27.4355 13.0152Z" fill="url(#paint0_linear)"/>
<defs>
<linearGradient id="paint0_linear" x1="18.5" y1="0.125" x2="18.5" y2="36.875" gradientUnits="userSpaceOnUse">
<stop stop-color="#FFBF32"/>
<stop offset="1" stop-color="#FFAF28"/>
</linearGradient>
</defs>
</svg>
