<svg width="17" height="18" viewBox="0 0 17 18" fill="none" xmlns="http://www.w3.org/2000/svg">
<path fill-rule="evenodd" clip-rule="evenodd" d="M3.73464 1.4375C2.6968 1.4375 1.85547 2.27883 1.85547 3.31666V13.895C1.85547 14.9328 2.6968 15.7742 3.73464 15.7742H13.268C14.3058 15.7742 15.1471 14.9328 15.1471 13.895V5.33333C15.1471 4.95364 15.4549 4.64583 15.8346 4.64583C16.2143 4.64583 16.5221 4.95364 16.5221 5.33333V13.895C16.5221 15.6922 15.0652 17.1492 13.268 17.1492H3.73464C1.93741 17.1492 0.480469 15.6922 0.480469 13.895V3.31666C0.480469 1.51944 1.93741 0.0625 3.73464 0.0625H11.2513C11.631 0.0625 11.9388 0.370304 11.9388 0.75C11.9388 1.1297 11.631 1.4375 11.2513 1.4375H3.73464Z" fill="white"/>
<path fill-rule="evenodd" clip-rule="evenodd" d="M10.5625 1.05098C10.5625 0.170803 11.6267 -0.27 12.2491 0.352382L16.2309 4.33419C16.8532 4.95657 16.4124 6.02075 15.5323 6.02075H11.5505C11.0048 6.02075 10.5625 5.57842 10.5625 5.03279V1.05098ZM11.9375 1.98538V4.64575H14.5979L11.9375 1.98538Z" fill="white"/>
<path fill-rule="evenodd" clip-rule="evenodd" d="M5.75 11.979C5.75 11.5993 6.0578 11.2915 6.4375 11.2915H10.5625C10.9422 11.2915 11.25 11.5993 11.25 11.979C11.25 12.3587 10.9422 12.6665 10.5625 12.6665H6.4375C6.0578 12.6665 5.75 12.3587 5.75 11.979Z" fill="white"/>
<path fill-rule="evenodd" clip-rule="evenodd" d="M4.83594 9.229C4.83594 8.84931 5.14374 8.5415 5.52344 8.5415H11.4818C11.8615 8.5415 12.1693 8.84931 12.1693 9.229C12.1693 9.6087 11.8615 9.91651 11.4818 9.91651H5.52344C5.14374 9.91651 4.83594 9.6087 4.83594 9.229Z" fill="white"/>
</svg>
