<svg width="23" height="22" viewBox="0 0 23 22" fill="none" xmlns="http://www.w3.org/2000/svg">
<path fill-rule="evenodd" clip-rule="evenodd" d="M6.73464 3.4375C5.6968 3.4375 4.85547 4.27883 4.85547 5.31666V15.895C4.85547 16.9328 5.6968 17.7742 6.73464 17.7742H16.268C17.3058 17.7742 18.1471 16.9328 18.1471 15.895V7.33333C18.1471 6.95364 18.4549 6.64583 18.8346 6.64583C19.2143 6.64583 19.5221 6.95364 19.5221 7.33333V15.895C19.5221 17.6922 18.0652 19.1492 16.268 19.1492H6.73464C4.93741 19.1492 3.48047 17.6922 3.48047 15.895V5.31666C3.48047 3.51944 4.93741 2.0625 6.73464 2.0625H14.2513C14.631 2.0625 14.9388 2.3703 14.9388 2.75C14.9388 3.1297 14.631 3.4375 14.2513 3.4375H6.73464Z" fill="white"/>
<path fill-rule="evenodd" clip-rule="evenodd" d="M13.5625 3.05098C13.5625 2.1708 14.6267 1.73 15.2491 2.35238L19.2309 6.33419C19.8532 6.95657 19.4124 8.02075 18.5323 8.02075H14.5505C14.0048 8.02075 13.5625 7.57842 13.5625 7.03279V3.05098ZM14.9375 3.98538V6.64575H17.5979L14.9375 3.98538Z" fill="white"/>
<path fill-rule="evenodd" clip-rule="evenodd" d="M8.75 13.979C8.75 13.5993 9.0578 13.2915 9.4375 13.2915H13.5625C13.9422 13.2915 14.25 13.5993 14.25 13.979C14.25 14.3587 13.9422 14.6665 13.5625 14.6665H9.4375C9.0578 14.6665 8.75 14.3587 8.75 13.979Z" fill="white"/>
<path fill-rule="evenodd" clip-rule="evenodd" d="M7.83594 11.229C7.83594 10.8493 8.14374 10.5415 8.52344 10.5415H14.4818C14.8615 10.5415 15.1693 10.8493 15.1693 11.229C15.1693 11.6087 14.8615 11.9165 14.4818 11.9165H8.52344C8.14374 11.9165 7.83594 11.6087 7.83594 11.229Z" fill="white"/>
</svg>
