<svg width="16" height="18" viewBox="0 0 16 18" fill="none" xmlns="http://www.w3.org/2000/svg">
<path d="M5.33301 14.7273C5.33301 17.4224 5.64679 18 7.11079 18C8.57479 18 8.88856 17.4224 8.88856 14.7273C8.88856 12.0322 8.57479 11.4545 7.11079 11.4545C5.64679 11.4545 5.33301 12.0322 5.33301 14.7273Z" fill="#FFA520"/>
<path fill-rule="evenodd" clip-rule="evenodd" d="M7.11111 5.24545C8.56208 5.24545 9.68601 5.20927 10.5604 5.11984C11.4473 5.02913 11.9876 4.89139 12.3192 4.73881C12.6076 4.60608 12.7039 4.48022 12.764 4.35578C12.8481 4.18152 12.9222 3.86978 12.9222 3.27273C12.9222 2.67568 12.8481 2.36394 12.764 2.18968C12.7039 2.06523 12.6076 1.93938 12.3192 1.80664C11.9876 1.65406 11.4473 1.51633 10.5604 1.42562C9.68601 1.33618 8.56208 1.3 7.11111 1.3C5.66014 1.3 4.53621 1.33618 3.66178 1.42562C2.77494 1.51633 2.23458 1.65406 1.90305 1.80664C1.61464 1.93938 1.51836 2.06523 1.45827 2.18968C1.37411 2.36394 1.3 2.67568 1.3 3.27273C1.3 3.86978 1.37411 4.18152 1.45827 4.35578C1.51836 4.48022 1.61464 4.60608 1.90305 4.73881C2.23458 4.89139 2.77494 5.02913 3.66178 5.11984C4.53621 5.20927 5.66014 5.24545 7.11111 5.24545ZM14.1765 4.05562C13.9068 6.08309 12.3503 6.54545 7.11111 6.54545C1.25511 6.54545 -3.4916e-08 5.96782 0 3.27273C3.49162e-08 0.577637 1.25511 -6.42794e-08 7.11111 0C12.5619 5.98266e-08 14.0265 0.500465 14.2031 2.74318C14.4083 2.76884 14.6386 2.82197 14.8544 2.92877C15.1401 3.07014 15.4027 3.29978 15.5862 3.64568C15.7647 3.98221 15.8495 4.39273 15.8495 4.87498V4.88453V4.894V4.90339V4.91271V4.92195V4.93111V4.9402V4.94921V4.95815V4.96701V4.97579V4.9845V4.99314V5.0017V5.01019V5.01861V5.02695V5.03522V5.04341V5.05154V5.05959V5.06757V5.07548V5.08332V5.09109V5.09879V5.10641V5.11397V5.12146V5.12888V5.13623V5.14351V5.15072V5.15787V5.16494V5.17195V5.1789V5.18577V5.19258V5.19933V5.20601V5.21262V5.21917V5.22565V5.23207V5.23842V5.24471V5.25093V5.2571V5.26319V5.26923V5.2752V5.28112V5.28697V5.29275V5.29848V5.30415V5.30975V5.3153V5.32078V5.32621V5.33157V5.33688V5.34213V5.34732V5.35245V5.35752V5.36254V5.3675V5.3724V5.37724V5.38203V5.38676V5.39144V5.39606V5.40062V5.40514V5.40959V5.41399V5.41834V5.42264V5.42688V5.43107V5.4352V5.43928V5.44331V5.44729V5.45122V5.4551V5.45892V5.4627V5.46642V5.4701V5.47372V5.4773V5.48082V5.4843V5.48773V5.49111V5.49444V5.49773V5.50097V5.50416V5.5073V5.5104V5.51345V5.51646V5.51942V5.52234V5.52521V5.52804V5.53082V5.53356V5.53625V5.5389V5.54151V5.54408V5.5466V5.54909V5.55152V5.55392V5.55628V5.5586V5.56087V5.56311V5.56531V5.56746V5.56958V5.57166V5.5737V5.5757V5.57766V5.57958V5.58147V5.58332V5.58513V5.58691V5.58865V5.59036V5.59203V5.59366V5.59526V5.59682V5.59835V5.59985V5.60131V5.60274V5.60413V5.60549V5.60682V5.60812V5.60938V5.61062V5.61135V5.61137V5.61138V5.6114V5.61142V5.61146V5.61147V5.61153V5.61154V5.61161V5.61163V5.61172V5.61173V5.61182V5.61184V5.61196V5.61198V5.6121V5.61214V5.61225V5.61231V5.61241V5.61251V5.61258V5.61272V5.61277V5.61296V5.61299V5.61317V5.61321V5.61339V5.61349V5.61362V5.61378V5.61386V5.6141V5.61413V5.61436V5.61444V5.61463V5.61479V5.61491V5.61517V5.61519V5.61524V5.61548V5.61557V5.61578V5.616V5.61609V5.61632V5.61641V5.61644V5.61673V5.61691V5.61706V5.61736V5.61739V5.61741V5.61773V5.61792V5.61808V5.61838V5.61843V5.61846V5.61879V5.61903V5.61916V5.61937V5.61952V5.61961V5.61989V5.62023V5.62027V5.62034V5.62065V5.62086V5.62103V5.62127V5.62142V5.62153V5.62181V5.62217V5.6222V5.62222V5.62259V5.62293V5.62299V5.62305V5.62338V5.62367V5.62378V5.6239V5.62418V5.62444V5.62458V5.62472V5.62498V5.62523V5.62538V5.62551V5.62577V5.62605V5.62617V5.62628V5.62657V5.6269V5.62697V5.62702V5.62736V5.62774V5.62776V5.62778V5.62815V5.62843V5.62853V5.62868V5.62892V5.62909V5.6293V5.62962V5.62968V5.62973V5.63006V5.63034V5.63043V5.63058V5.6308V5.63093V5.63116V5.63149V5.63152V5.63157V5.63187V5.63203V5.63222V5.63255V5.63256V5.63259V5.6329V5.63304V5.63322V5.63351V5.63355V5.63364V5.63386V5.63395V5.63417V5.63438V5.63447V5.63472V5.63476V5.63478V5.63505V5.63516V5.63532V5.63552V5.63559V5.63583V5.63585V5.6361V5.63617V5.63633V5.63646V5.63656V5.63674V5.63678V5.63697V5.63699V5.63718V5.63723V5.63737V5.63744V5.63754V5.63764V5.63771V5.63782V5.63786V5.63797V5.63799V5.63812V5.63814V5.63823V5.63824V5.63832V5.63834V5.63841V5.63843V5.63848V5.6385V5.63853V5.63855V5.63858V5.63859V5.63861V5.63934V5.64057V5.64184V5.64313V5.64446V5.64582V5.64722V5.64864V5.65011V5.6516V5.65313V5.65469V5.65629V5.65793V5.6596V5.6613V5.66304V5.66482V5.66663V5.66848V5.67037V5.67229V5.67426V5.67626V5.6783V5.68037V5.68249V5.68465V5.68684V5.68908V5.69136V5.69367V5.69603V5.69843V5.70087V5.70335V5.70587V5.70844V5.71105V5.7137V5.7164V5.71913V5.72192V5.72474V5.72761V5.73053V5.73349V5.7365V5.73955V5.74265V5.74579V5.74899V5.75222V5.75551V5.75884V5.76222V5.76565V5.76913V5.77266V5.77623V5.77986V5.78353V5.78726V5.79103V5.79486V5.79873V5.80266V5.80664V5.81067V5.81475V5.81889V5.82308V5.82732V5.83161V5.83596V5.84036V5.84482V5.84933V5.85389V5.85851V5.86319V5.86792V5.87271V5.87756V5.88246V5.88742V5.89243V5.8975V5.90264V5.90782V5.91307V5.91838V5.92374V5.92917V5.93465V5.9402V5.94581V5.95147V5.9572V5.96299V5.96884V5.97475V5.98072V5.98676V5.99286V5.99902V6.00524V6.01153V6.01789V6.0243V6.03079V6.03733V6.04395V6.05062V6.05737V6.06418V6.07105V6.078V6.08501V6.09209V6.09923V6.10644V6.11373V6.12108V6.12849V6.13598V6.14354V6.15117V6.15886V6.16663V6.17447V6.18238V6.19036V6.19841V6.20654V6.21474V6.223V6.23135V6.23976V6.24825V6.25681V6.26545V6.27416V6.28295V6.29181V6.30074V6.30975V6.31884V6.32801V6.33724V6.34656V6.35596V6.36543V6.37498C15.8495 7.32216 15.5649 8.145 15.0246 8.73862C14.4806 9.33636 13.7231 9.64997 12.8884 9.64997H12.8806H12.8727H12.8649H12.857H12.8492H12.8413H12.8334H12.8256H12.8177H12.8098H12.8018H12.7939H12.786H12.778H12.7701H12.7621H12.7541H12.7462H12.7382H12.7302H12.7222H12.7142H12.7061H12.6981H12.69H12.682H12.6739H12.6659H12.6578H12.6497H12.6416H12.6335H12.6254H12.6173H12.6091H12.601H12.5929H12.5847H12.5765H12.5684H12.5602H12.552H12.5438H12.5356H12.5274H12.5192H12.511H12.5028H12.4945H12.4863H12.478H12.4698H12.4615H12.4532H12.445H12.4367H12.4284H12.4201H12.4118H12.4035H12.3951H12.3868H12.3785H12.3702H12.3618H12.3535H12.3451H12.3367H12.3284H12.32H12.3116H12.3032H12.2948H12.2864H12.278H12.2696H12.2612H12.2528H12.2443H12.2359H12.2275H12.219H12.2106H12.2021H12.1937H12.1852H12.1767H12.1683H12.1598H12.1513H12.1428H12.1343H12.1258H12.1173H12.1088H12.1003H12.0918H12.0833H12.0747H12.0662H12.0577H12.0491H12.0406H12.032H12.0235H12.0149H12.0064H11.9978H11.9893H11.9807H11.9721H11.9635H11.955H11.9464H11.9378H11.9292H11.9206H11.912H11.9034H11.8948H11.8862H11.8776H11.869H11.8604H11.8517H11.8431H11.8345H11.8259H11.8173H11.8086H11.8H11.7914H11.7827H11.7741H11.7654H11.7568H11.7482H11.7395H11.7309H11.7222H11.7135H11.7049H11.6962H11.6876H11.6789H11.6703H11.6616H11.6529H11.6443H11.6356H11.6269H11.6183H11.6096H11.6009H11.5922H11.5836H11.5749H11.5662H11.5575H11.5489H11.5402H11.5315H11.5228H11.5142H11.5055H11.4968H11.4881H11.4794H11.4708H11.4621H11.4534H11.4447H11.436H11.4274H11.4187H11.41H11.4013H11.3926H11.384H11.3753H11.3666H11.3579H11.3492H11.3406H11.3319H11.3232H11.3145H11.3059H11.2972H11.2885H11.2799H11.2712H11.2625H11.2539H11.2452H11.2365H11.2279H11.2192H11.2106H11.2019H11.1933H11.1846H11.176H11.1673H11.1587H11.15H11.1414H11.1327H11.1241H11.1155H11.1068H11.0982H11.0896H11.0809H11.0723H11.0637H11.0551H11.0465H11.0378H11.0292H11.0206H11.012H11.0034H10.9948H10.9862H10.9776H10.9691H10.9605H10.9519H10.9433H10.9347H10.9262H10.9176H10.909H10.9005H10.8919H10.8834H10.8748H10.8663H10.8577H10.8492H10.8407H10.8322H10.8236H10.8151H10.8066H10.7981H10.7896H10.7811H10.7726H10.7641H10.7556H10.7471H10.7387H10.7302H10.7217H10.7133H10.7048H10.6964H10.6879H10.6795H10.671H10.6626H10.6542H10.6458H10.6373H10.6289H10.6205H10.6121H10.6038H10.5954H10.587H10.5786H10.5703H10.5619H10.5535H10.5452H10.5369H10.5285H10.5202H10.5119H10.5036H10.4953H10.487H10.4787H10.4704H10.4621H10.4538H10.4455H10.4373H10.429H10.4208H10.4126H10.4043H10.3961H10.3879H10.3797H10.3715H10.3633H10.3551H10.3469H10.3387H10.3306H10.3224H10.3143H10.3061H10.298H10.2899H10.2818H10.2737H10.2656H10.2575H10.2494H10.2413H10.2333H10.2252H10.2172H10.2091H10.2011H10.1931H10.1851H10.1771H10.1691H10.1611H10.1531H10.1451H10.1372H10.1292H10.1213H10.1134H10.1054H10.0975H10.0896H10.0817H10.0739H10.066H10.0581H10.0503H10.0424H10.0346H10.0268H10.019H10.0112H10.0034H9.99561H9.98784H9.98008H9.97233H9.9646H9.95687H9.94915H9.94145H9.93375H9.92607H9.91839H9.91073H9.90308H9.89544H9.88781H9.88019H9.87259H9.86499H9.85741H9.84983H9.84227H9.83472H9.82719H9.81966H9.81215H9.80464H9.79715H9.78967H9.78221H9.77475H9.76731H9.75988H9.75246H9.74506H9.73766H9.73028H9.72292H9.71556H9.70822H9.70089H9.69357H9.68626H9.67897H9.67169H9.66442H9.65717H9.64993H9.6427H9.63549H9.62829H9.6211H9.61393H9.60677H9.59962H9.59249H9.58537H9.57826H9.57117H9.56409H9.55702H9.54997H9.54294H9.53591H9.5289H9.52191H9.51493H9.50796H9.50101H9.49407H9.48715H9.48024H9.47335H9.46647H9.4596H9.45275H9.44592H9.4391H9.43229H9.4255H9.41873H9.41196H9.40522H9.39849H9.39177H9.38507H9.37839H9.37172H9.36507H9.35843H9.35181H9.3452H9.33861H9.33204H9.32548H9.31894H9.31241H9.3059H9.29941H9.29293H9.28647H9.28002H9.27359H9.26718H9.26078H9.2544H9.24804H9.24169H9.23536H9.22905H9.22275H9.21647H9.21021H9.20396H9.19773H9.19152H9.18533H9.17915H9.17299H9.16685H9.16072H9.15461H9.14852H9.14245H9.1364H9.13036H9.12434H9.11834H9.11236H9.10639H9.10044H9.09451H9.0886H9.08271H9.07683H9.07098H9.06514H9.05932H9.05352H9.04774H9.04197H9.03623H9.0305H9.02479H9.0191H9.01343H9.00778H9.00215H8.99654H8.99094H8.98537H8.97981H8.97428H8.96876H8.96326H8.95779H8.95233H8.94689H8.94147H8.93607H8.93069H8.92533H8.92H8.91468H8.90938H8.9041H8.89884H8.8936H8.88838C8.52967 9.64997 8.24324 9.73446 8.06175 9.87368C7.90846 9.99126 7.7606 10.1987 7.7606 10.6363L7.76061 11.9147L7.7606 12.1896L7.7606 12.2527L7.7606 12.2678V12.2715V12.2724V12.2726V12.2727C7.76059 12.6317 7.46957 12.9227 7.11058 12.9227C6.7516 12.9227 6.46059 12.6317 6.4606 12.2727V12.2727V12.2726V12.2724V12.2715V12.2678L6.4606 12.2527L6.4606 12.1896L6.46061 11.9147L6.4606 10.6363C6.4606 9.84673 6.75717 9.23596 7.27055 8.84218C7.75572 8.47002 8.35819 8.34997 8.88838 8.34997H8.8936H8.89884H8.9041H8.90938H8.91468H8.92H8.92533H8.93069H8.93607H8.94147H8.94689H8.95233H8.95779H8.96326H8.96876H8.97428H8.97981H8.98537H8.99094H8.99654H9.00215H9.00778H9.01343H9.0191H9.02479H9.0305H9.03623H9.04197H9.04774H9.05352H9.05932H9.06514H9.07098H9.07683H9.08271H9.0886H9.09451H9.10044H9.10639H9.11236H9.11834H9.12434H9.13036H9.1364H9.14245H9.14852H9.15461H9.16072H9.16685H9.17299H9.17915H9.18533H9.19152H9.19773H9.20396H9.21021H9.21647H9.22275H9.22905H9.23536H9.24169H9.24804H9.2544H9.26078H9.26718H9.27359H9.28002H9.28647H9.29293H9.29941H9.3059H9.31241H9.31894H9.32548H9.33204H9.33861H9.3452H9.35181H9.35843H9.36507H9.37172H9.37839H9.38507H9.39177H9.39849H9.40522H9.41196H9.41873H9.4255H9.43229H9.4391H9.44592H9.45275H9.4596H9.46647H9.47335H9.48024H9.48715H9.49407H9.50101H9.50796H9.51493H9.52191H9.5289H9.53591H9.54294H9.54997H9.55702H9.56409H9.57117H9.57826H9.58537H9.59249H9.59962H9.60677H9.61393H9.6211H9.62829H9.63549H9.6427H9.64993H9.65717H9.66442H9.67169H9.67897H9.68626H9.69357H9.70089H9.70822H9.71556H9.72292H9.73028H9.73766H9.74506H9.75246H9.75988H9.76731H9.77475H9.78221H9.78967H9.79715H9.80464H9.81215H9.81966H9.82719H9.83472H9.84227H9.84983H9.85741H9.86499H9.87259H9.88019H9.88781H9.89544H9.90308H9.91073H9.91839H9.92607H9.93375H9.94145H9.94915H9.95687H9.9646H9.97233H9.98008H9.98784H9.99561H10.0034H10.0112H10.019H10.0268H10.0346H10.0424H10.0503H10.0581H10.066H10.0739H10.0817H10.0896H10.0975H10.1054H10.1134H10.1213H10.1292H10.1372H10.1451H10.1531H10.1611H10.1691H10.1771H10.1851H10.1931H10.2011H10.2091H10.2172H10.2252H10.2333H10.2413H10.2494H10.2575H10.2656H10.2737H10.2818H10.2899H10.298H10.3061H10.3143H10.3224H10.3306H10.3387H10.3469H10.3551H10.3633H10.3715H10.3797H10.3879H10.3961H10.4043H10.4126H10.4208H10.429H10.4373H10.4455H10.4538H10.4621H10.4704H10.4787H10.487H10.4953H10.5036H10.5119H10.5202H10.5285H10.5369H10.5452H10.5535H10.5619H10.5703H10.5786H10.587H10.5954H10.6038H10.6121H10.6205H10.6289H10.6373H10.6458H10.6542H10.6626H10.671H10.6795H10.6879H10.6964H10.7048H10.7133H10.7217H10.7302H10.7387H10.7471H10.7556H10.7641H10.7726H10.7811H10.7896H10.7981H10.8066H10.8151H10.8236H10.8322H10.8407H10.8492H10.8577H10.8663H10.8748H10.8834H10.8919H10.9005H10.909H10.9176H10.9262H10.9347H10.9433H10.9519H10.9605H10.9691H10.9776H10.9862H10.9948H11.0034H11.012H11.0206H11.0292H11.0378H11.0465H11.0551H11.0637H11.0723H11.0809H11.0896H11.0982H11.1068H11.1155H11.1241H11.1327H11.1414H11.15H11.1587H11.1673H11.176H11.1846H11.1933H11.2019H11.2106H11.2192H11.2279H11.2365H11.2452H11.2539H11.2625H11.2712H11.2799H11.2885H11.2972H11.3059H11.3145H11.3232H11.3319H11.3406H11.3492H11.3579H11.3666H11.3753H11.384H11.3926H11.4013H11.41H11.4187H11.4274H11.436H11.4447H11.4534H11.4621H11.4708H11.4794H11.4881H11.4968H11.5055H11.5142H11.5228H11.5315H11.5402H11.5489H11.5575H11.5662H11.5749H11.5836H11.5922H11.6009H11.6096H11.6183H11.6269H11.6356H11.6443H11.6529H11.6616H11.6703H11.6789H11.6876H11.6962H11.7049H11.7135H11.7222H11.7309H11.7395H11.7482H11.7568H11.7654H11.7741H11.7827H11.7914H11.8H11.8086H11.8173H11.8259H11.8345H11.8431H11.8517H11.8604H11.869H11.8776H11.8862H11.8948H11.9034H11.912H11.9206H11.9292H11.9378H11.9464H11.955H11.9635H11.9721H11.9807H11.9893H11.9978H12.0064H12.0149H12.0235H12.032H12.0406H12.0491H12.0577H12.0662H12.0747H12.0833H12.0918H12.1003H12.1088H12.1173H12.1258H12.1343H12.1428H12.1513H12.1598H12.1683H12.1767H12.1852H12.1937H12.2021H12.2106H12.219H12.2275H12.2359H12.2443H12.2528H12.2612H12.2696H12.278H12.2864H12.2948H12.3032H12.3116H12.32H12.3284H12.3367H12.3451H12.3535H12.3618H12.3702H12.3785H12.3868H12.3951H12.4035H12.4118H12.4201H12.4284H12.4367H12.445H12.4532H12.4615H12.4698H12.478H12.4863H12.4945H12.5028H12.511H12.5192H12.5274H12.5356H12.5438H12.552H12.5602H12.5684H12.5765H12.5847H12.5929H12.601H12.6091H12.6173H12.6254H12.6335H12.6416H12.6497H12.6578H12.6659H12.6739H12.682H12.69H12.6981H12.7061H12.7142H12.7222H12.7302H12.7382H12.7462H12.7541H12.7621H12.7701H12.778H12.786H12.7939H12.8018H12.8098H12.8177H12.8256H12.8334H12.8413H12.8492H12.857H12.8649H12.8727H12.8806H12.8884C13.387 8.34997 13.785 8.16927 14.0632 7.8636C14.3452 7.55382 14.5495 7.06415 14.5495 6.37498V6.36543V6.35596V6.34656V6.33724V6.32801V6.31884V6.30975V6.30074V6.29181V6.28295V6.27416V6.26545V6.25681V6.24825V6.23976V6.23135V6.223V6.21474V6.20654V6.19841V6.19036V6.18238V6.17447V6.16663V6.15886V6.15117V6.14354V6.13598V6.12849V6.12108V6.11373V6.10644V6.09923V6.09209V6.08501V6.078V6.07105V6.06418V6.05737V6.05062V6.04395V6.03733V6.03079V6.0243V6.01789V6.01153V6.00524V5.99902V5.99286V5.98676V5.98072V5.97475V5.96884V5.96299V5.9572V5.95147V5.94581V5.9402V5.93465V5.92917V5.92374V5.91838V5.91307V5.90782V5.90264V5.8975V5.89243V5.88742V5.88246V5.87756V5.87271V5.86792V5.86319V5.85851V5.85389V5.84933V5.84482V5.84036V5.83596V5.83161V5.82732V5.82308V5.81889V5.81475V5.81067V5.80664V5.80266V5.79873V5.79486V5.79103V5.78726V5.78353V5.77986V5.77623V5.77266V5.76913V5.76565V5.76222V5.75884V5.75551V5.75222V5.74899V5.74579V5.74265V5.73955V5.7365V5.73349V5.73053V5.72761V5.72474V5.72192V5.71913V5.7164V5.7137V5.71105V5.70844V5.70587V5.70335V5.70087V5.69843V5.69603V5.69367V5.69136V5.68908V5.68684V5.68465V5.68249V5.68037V5.6783V5.67626V5.67426V5.67229V5.67037V5.66848V5.66663V5.66482V5.66304V5.6613V5.6596V5.65793V5.65629V5.65469V5.65313V5.6516V5.65011V5.64864V5.64722V5.64582V5.64446V5.64313V5.64184V5.64057V5.63934V5.63861V5.6386V5.63859V5.63858V5.63855V5.63853V5.6385V5.63848V5.63843V5.63841V5.63834V5.63832V5.63824V5.63823V5.63814V5.63812V5.63799V5.63797V5.63786V5.63782V5.63771V5.63764V5.63754V5.63744V5.63737V5.63723V5.63718V5.63699V5.63697V5.63678V5.63674V5.63656V5.63646V5.63633V5.63617V5.6361V5.63585V5.63583V5.63559V5.63552V5.63532V5.63516V5.63505V5.63478V5.63476V5.63472V5.63447V5.63438V5.63417V5.63395V5.63386V5.63364V5.63355V5.63351V5.63322V5.63304V5.6329V5.63259V5.63256V5.63255V5.63222V5.63203V5.63187V5.63157V5.63152V5.63149V5.63116V5.63093V5.6308V5.63058V5.63043V5.63034V5.63006V5.62973V5.62968V5.62962V5.6293V5.62909V5.62892V5.62868V5.62853V5.62843V5.62815V5.62778V5.62776V5.62774V5.62736V5.62702V5.62697V5.6269V5.62657V5.62628V5.62617V5.62605V5.62577V5.62551V5.62538V5.62523V5.62498V5.62472V5.62458V5.62444V5.62418V5.6239V5.62378V5.62367V5.62338V5.62305V5.62299V5.62293V5.62259V5.62222V5.6222V5.62217V5.62181V5.62153V5.62142V5.62127V5.62103V5.62086V5.62065V5.62034V5.62027V5.62023V5.61989V5.61961V5.61952V5.61937V5.61916V5.61903V5.61879V5.61846V5.61843V5.61838V5.61808V5.61792V5.61773V5.61741V5.61739V5.61736V5.61706V5.61691V5.61673V5.61644V5.61641V5.61632V5.61609V5.616V5.61578V5.61557V5.61548V5.61524V5.61519V5.61517V5.61491V5.61479V5.61463V5.61444V5.61436V5.61413V5.6141V5.61386V5.61378V5.61362V5.61349V5.61339V5.61321V5.61317V5.61299V5.61296V5.61277V5.61272V5.61258V5.61251V5.61241V5.61231V5.61225V5.61214V5.6121V5.61198V5.61196V5.61184V5.61182V5.61173V5.61172V5.61163V5.61161V5.61154V5.61153V5.61147V5.61146V5.61142V5.6114V5.61138V5.61137V5.61135V5.61134V5.61062V5.60938V5.60812V5.60682V5.60549V5.60413V5.60274V5.60131V5.59985V5.59835V5.59682V5.59526V5.59366V5.59203V5.59036V5.58865V5.58691V5.58513V5.58332V5.58147V5.57958V5.57766V5.5757V5.5737V5.57166V5.56958V5.56746V5.56531V5.56311V5.56087V5.5586V5.55628V5.55392V5.55152V5.54909V5.5466V5.54408V5.54151V5.5389V5.53625V5.53356V5.53082V5.52804V5.52521V5.52234V5.51942V5.51646V5.51345V5.5104V5.5073V5.50416V5.50097V5.49773V5.49444V5.49111V5.48773V5.4843V5.48082V5.4773V5.47372V5.4701V5.46642V5.4627V5.45892V5.4551V5.45122V5.44729V5.44331V5.43928V5.4352V5.43107V5.42688V5.42264V5.41834V5.41399V5.40959V5.40514V5.40062V5.39606V5.39144V5.38676V5.38203V5.37724V5.3724V5.3675V5.36254V5.35752V5.35245V5.34732V5.34213V5.33688V5.33157V5.32621V5.32078V5.3153V5.30975V5.30415V5.29848V5.29275V5.28697V5.28112V5.2752V5.26923V5.26319V5.2571V5.25093V5.24471V5.23842V5.23207V5.22565V5.21917V5.21262V5.20601V5.19933V5.19258V5.18577V5.1789V5.17195V5.16494V5.15787V5.15072V5.14351V5.13623V5.12888V5.12146V5.11397V5.10641V5.09879V5.09109V5.08332V5.07548V5.06757V5.05959V5.05154V5.04341V5.03522V5.02695V5.01861V5.01019V5.0017V4.99314V4.9845V4.97579V4.96701V4.95815V4.94921V4.9402V4.93111V4.92195V4.91271V4.90339V4.894V4.88453V4.87498C14.5495 4.53904 14.4898 4.35297 14.4377 4.25484C14.3907 4.16608 14.3366 4.12299 14.2778 4.09391C14.2452 4.07778 14.2117 4.06528 14.1765 4.05562Z" fill="#FFA520"/>
</svg>
