<svg width="20" height="20" viewBox="0 0 20 20" fill="none" xmlns="http://www.w3.org/2000/svg">
<path d="M20 5.82661C20 5.74597 19.9902 5.66196 19.9707 5.5746C19.9512 5.48723 19.9284 5.40659 19.9023 5.33266C19.8763 5.25874 19.8405 5.18817 19.7949 5.12097C19.7493 5.05376 19.6973 4.98992 19.6387 4.92944C19.5801 4.86895 19.5182 4.81519 19.4531 4.76815C19.388 4.7211 19.3164 4.68078 19.2383 4.64718C19.1602 4.61358 19.082 4.58669 19.0039 4.56653C18.9258 4.54637 18.8411 4.53629 18.75 4.53629H16.6211C17.2201 3.93145 17.5195 3.19893 17.5195 2.33871C17.5195 1.93548 17.4479 1.56586 17.3047 1.22984C17.1615 0.893817 16.9043 0.604839 16.5332 0.362903C16.1621 0.120968 15.7031 0 15.1562 0C14.9349 0 14.7103 0.0235215 14.4824 0.0705645C14.2546 0.117608 14.0365 0.188172 13.8281 0.282258C13.6198 0.376344 13.4147 0.480511 13.2129 0.594758C13.0111 0.709005 12.8158 0.840054 12.627 0.987903C12.4382 1.13575 12.2559 1.28696 12.0801 1.44153C11.9043 1.5961 11.735 1.76411 11.5723 1.94556C11.4095 2.12702 11.2565 2.30175 11.1133 2.46976C10.9701 2.63777 10.8301 2.8125 10.6934 2.99395C10.5566 3.1754 10.4362 3.34005 10.332 3.4879C10.2279 3.63575 10.1302 3.79032 10.0391 3.95161C9.76562 3.52151 9.4694 3.1082 9.15039 2.71169C8.83138 2.31519 8.44401 1.89852 7.98828 1.46169C7.53255 1.02487 7.03125 0.672043 6.48438 0.403226C5.9375 0.134409 5.39714 0 4.86328 0C4.31641 0 3.85742 0.120968 3.48633 0.362903C3.11523 0.604839 2.85807 0.893817 2.71484 1.22984C2.57161 1.56586 2.5 1.93548 2.5 2.33871C2.5 3.19893 2.80599 3.93817 3.41797 4.55645H1.25C0.898438 4.55645 0.602214 4.68078 0.361328 4.92944C0.120443 5.17809 0 5.48387 0 5.84677V9.69758H1.26953V18.1048C1.26953 18.4543 1.38997 18.7567 1.63086 19.0121C1.87174 19.2675 2.16797 19.3952 2.51953 19.3952H17.5C17.8516 19.3952 18.1478 19.2675 18.3887 19.0121C18.6296 18.7567 18.75 18.4543 18.75 18.1048V9.69758H20V5.82661ZM15.1562 1.29032C15.8984 1.29032 16.2695 1.63979 16.2695 2.33871C16.2695 2.7957 16.1198 3.19556 15.8203 3.53831C15.5208 3.88105 15.1465 4.13306 14.6973 4.29435C14.248 4.45565 13.7695 4.53629 13.2617 4.53629H11.1523C11.3997 4.15995 11.6634 3.8004 11.9434 3.45766C12.2233 3.11492 12.5391 2.77218 12.8906 2.42944C13.2422 2.08669 13.6165 1.81116 14.0137 1.60282C14.4108 1.39449 14.7917 1.29032 15.1562 1.29032ZM4.86328 1.29032C5.56641 1.29032 6.2793 1.61962 7.00195 2.27823C7.72461 2.93683 8.36589 3.68952 8.92578 4.53629H6.81641C6.02214 4.53629 5.3125 4.33468 4.6875 3.93145C4.0625 3.52823 3.75 2.99059 3.75 2.31855C3.75 1.67339 4.08203 1.33737 4.74609 1.31048C4.78516 1.29704 4.82422 1.29032 4.86328 1.29032ZM18.75 8.40726H10.625V5.82661H18.75V8.40726ZM1.25 5.82661H9.375V8.40726H1.25V5.82661ZM2.51953 9.69758H9.375V18.1048H2.51953V9.69758ZM17.5 18.1048H10.625V9.69758H17.5V18.1048Z" fill="white"/>
</svg>
