<svg width="19" height="19" viewBox="0 0 19 19" fill="none" xmlns="http://www.w3.org/2000/svg">
<path d="M0.65 9.5C0.65 11.441 0.75485 12.9564 1.01875 14.1438C1.28101 15.3239 1.69162 16.1398 2.2759 16.7241C2.86018 17.3084 3.67615 17.719 4.85621 17.9813C6.04365 18.2451 7.55902 18.35 9.5 18.35C11.441 18.35 12.9564 18.2451 14.1438 17.9813C15.3239 17.719 16.1398 17.3084 16.7241 16.7241C17.3084 16.1398 17.719 15.3239 17.9813 14.1438C18.2451 12.9564 18.35 11.441 18.35 9.5C18.35 7.55902 18.2451 6.04365 17.9813 4.85621C17.719 3.67615 17.3084 2.86018 16.7241 2.2759C16.1398 1.69162 15.3239 1.28101 14.1438 1.01875C12.9564 0.75485 11.441 0.65 9.5 0.65C7.55902 0.65 6.04365 0.75485 4.85621 1.01875C3.67615 1.28101 2.86018 1.69162 2.2759 2.2759C1.69162 2.86018 1.28101 3.67615 1.01875 4.85621C0.75485 6.04365 0.65 7.55902 0.65 9.5Z" stroke="#333333" stroke-width="1.3" stroke-linecap="round" stroke-linejoin="round"/>
<path d="M7.91699 5.5415H11.0837" stroke="#333333" stroke-width="1.3" stroke-linecap="round" stroke-linejoin="round"/>
<path d="M5.54199 9.5H13.4587" stroke="#333333" stroke-width="1.3" stroke-linecap="round" stroke-linejoin="round"/>
<path d="M7.91699 13.4585L11.0837 13.4585" stroke="#333333" stroke-width="1.3" stroke-linecap="round" stroke-linejoin="round"/>
</svg>
