<svg width="30" height="31" viewBox="0 0 30 31" fill="none" xmlns="http://www.w3.org/2000/svg">
<path fill-rule="evenodd" clip-rule="evenodd" d="M15 0.549805C27.3525 0.549805 30 3.1973 30 15.5498C27.5 28.0498 15 30.5498 15 30.5498C15 30.5498 2.5 28.0498 0 15.5498C0 3.1973 2.6475 0.549802 15 0.549805ZM20.8839 10.9159C21.3721 11.4041 21.3721 12.1956 20.8839 12.6837L14.6339 18.9337C14.1457 19.4219 13.3543 19.4219 12.8661 18.9337L10.3661 16.4337C9.87798 15.9456 9.87798 15.1541 10.3661 14.6659C10.8543 14.1778 11.6457 14.1778 12.1339 14.6659L13.75 16.2821L19.1161 10.9159C19.6043 10.4278 20.3957 10.4278 20.8839 10.9159Z" fill="#333333"/>
</svg>
