<svg width="30" height="31" viewBox="0 0 30 31" fill="none" xmlns="http://www.w3.org/2000/svg">
<path fill-rule="evenodd" clip-rule="evenodd" d="M7.5 8V6.125C7.5 4.63316 8.09263 3.20242 9.14752 2.14752C10.2024 1.09263 11.6332 0.5 13.125 0.5H16.875C18.3668 0.5 19.7976 1.09263 20.8525 2.14752C21.9074 3.20242 22.5 4.63316 22.5 6.125V8H26.25C27.2446 8 28.1984 8.39509 28.9016 9.09835C29.6049 9.80161 30 10.7554 30 11.75V18.4438C25.1993 20.2226 20.1197 21.1306 15 21.125C9.88031 21.1307 4.80069 20.2227 0 18.4438V11.75C0 10.7554 0.395088 9.80161 1.09835 9.09835C1.80161 8.39509 2.75544 8 3.75 8H7.5ZM11.25 6.125C11.25 5.62772 11.4475 5.15081 11.7992 4.79918C12.1508 4.44754 12.6277 4.25 13.125 4.25H16.875C17.3723 4.25 17.8492 4.44754 18.2008 4.79918C18.5525 5.15081 18.75 5.62772 18.75 6.125V8H11.25V6.125ZM13.125 15.5C13.125 15.0027 13.3225 14.5258 13.6742 14.1742C14.0258 13.8225 14.5027 13.625 15 13.625H15.0188C15.516 13.625 15.9929 13.8225 16.3446 14.1742C16.6962 14.5258 16.8938 15.0027 16.8938 15.5C16.8938 15.9973 16.6962 16.4742 16.3446 16.8258C15.9929 17.1775 15.516 17.375 15.0188 17.375H15C14.5027 17.375 14.0258 17.1775 13.6742 16.8258C13.3225 16.4742 13.125 15.9973 13.125 15.5Z" fill="#333333"/>
<path d="M0 22.4224V26.7499C0 27.7444 0.395088 28.6983 1.09835 29.4015C1.80161 30.1048 2.75544 30.4999 3.75 30.4999H26.25C27.2446 30.4999 28.1984 30.1048 28.9016 29.4015C29.6049 28.6983 30 27.7444 30 26.7499V22.4224C25.1669 24.0513 20.1002 24.8797 15 24.8749C9.7575 24.8749 4.71187 24.0124 0 22.4224Z" fill="#333333"/>
</svg>
