<svg width="30" height="30" viewBox="0 0 30 30" fill="none" xmlns="http://www.w3.org/2000/svg">
<path fill-rule="evenodd" clip-rule="evenodd" d="M11.6456 1.66616C13.3301 -0.555387 16.6699 -0.555387 18.3544 1.66616L19.7569 3.51586L22.0566 3.19967C24.8186 2.81991 27.1801 5.18145 26.8003 7.94344L26.4841 10.2431L28.3338 11.6457C30.5554 13.3301 30.5554 16.6699 28.3338 18.3544L26.4841 19.7569L26.8003 22.0566C27.1801 24.8186 24.8186 27.1801 22.0566 26.8003L19.7569 26.4841L18.3544 28.3338C16.6699 30.5554 13.3301 30.5554 11.6456 28.3338L10.2431 26.4841L7.94344 26.8003C5.18145 27.1801 2.81991 24.8186 3.19967 22.0566L3.51586 19.7569L1.66616 18.3544C-0.555387 16.6699 -0.555387 13.3301 1.66616 11.6456L3.51586 10.2431L3.19967 7.94344C2.81991 5.18145 5.18145 2.81991 7.94344 3.19967L10.2431 3.51586L11.6456 1.66616ZM10.3825 17.7705C9.87249 18.2805 9.87249 19.1074 10.3825 19.6175C10.8926 20.1275 11.7195 20.1275 12.2295 19.6175L19.6175 12.2295C20.1275 11.7195 20.1275 10.8926 19.6175 10.3825C19.1074 9.87249 18.2805 9.87249 17.7705 10.3825L10.3825 17.7705ZM11.25 13.75C10.5596 13.75 10 13.1904 10 12.5V11.25C10 10.5596 10.5596 10 11.25 10C11.9404 10 12.5 10.5596 12.5 11.25V12.5C12.5 13.1904 11.9404 13.75 11.25 13.75ZM17.5 18.75C17.5 19.4404 18.0596 20 18.75 20C19.4404 20 20 19.4404 20 18.75V17.5C20 16.8096 19.4404 16.25 18.75 16.25C18.0596 16.25 17.5 16.8096 17.5 17.5V18.75Z" fill="#212135"/>
</svg>
