<svg width="37" height="37" viewBox="0 0 37 37" fill="none" xmlns="http://www.w3.org/2000/svg">
<path fill-rule="evenodd" clip-rule="evenodd" d="M25.1673 13.0904C25.5916 13.444 25.6489 14.0746 25.2953 14.4989L19.0437 22.0008C19.0314 22.0156 19.0191 22.0304 19.0068 22.0452C18.7112 22.4 18.4268 22.7413 18.1558 22.9879C17.8522 23.264 17.4463 23.5347 16.8969 23.5596C16.3475 23.5845 15.9188 23.3517 15.5914 23.1042C15.2991 22.8832 14.9851 22.569 14.6586 22.2424C14.645 22.2288 14.6314 22.2152 14.6177 22.2016L11.5741 19.158C11.1836 18.7674 11.1836 18.1343 11.5741 17.7438C11.9647 17.3532 12.5978 17.3532 12.9884 17.7438L16.0319 20.7873C16.4149 21.1703 16.6299 21.3821 16.7977 21.5089C16.7998 21.5106 16.802 21.5122 16.8041 21.5138C16.806 21.512 16.808 21.5102 16.81 21.5084C16.9656 21.3668 17.1606 21.1365 17.5073 20.7204L23.7589 13.2185C24.1125 12.7942 24.743 12.7369 25.1673 13.0904Z" fill="white"/>
</svg>
