<svg width="16" height="17" viewBox="0 0 16 17" fill="none" xmlns="http://www.w3.org/2000/svg">
<path fill-rule="evenodd" clip-rule="evenodd" d="M5.33333 0.965332C5.69232 0.965332 5.98333 1.25635 5.98333 1.61533V2.28419C6.59463 2.24693 7.26511 2.23071 8 2.23071C8.73489 2.23071 9.40537 2.24693 10.0167 2.28419V1.61533C10.0167 1.25635 10.3077 0.965332 10.6667 0.965332C11.0257 0.965332 11.3167 1.25635 11.3167 1.61533V2.40861C14.3611 2.82836 15.5419 4.08309 15.8842 7.11918C15.9077 7.32737 15.9272 7.54393 15.9432 7.76918C15.9579 7.97799 15.9696 8.19426 15.9784 8.41824C15.9932 8.79508 16 9.19372 16 9.61533C16 15.6966 14.588 16.9999 8 16.9999C1.412 16.9999 0 15.6966 0 9.61533C0 9.19372 0.0067871 8.79508 0.0216154 8.41824C0.0304286 8.19426 0.0420824 7.97799 0.0568403 7.76918C0.0727597 7.54393 0.092291 7.32737 0.115765 7.11918C0.45809 4.08309 1.63886 2.82836 4.68333 2.40861V1.61533C4.68333 1.25635 4.97435 0.965332 5.33333 0.965332ZM4.68333 3.72252C3.75426 3.8646 3.12325 4.08575 2.67905 4.38635C2.06436 4.80233 1.62601 5.51169 1.42484 7.11918H14.5752C14.374 5.51169 13.9356 4.80233 13.321 4.38635C12.8768 4.08575 12.2457 3.8646 11.3167 3.72252V4.07687C11.3167 4.43586 11.0257 4.72687 10.6667 4.72687C10.3077 4.72687 10.0167 4.43586 10.0167 4.07687V3.58764C9.43161 3.54967 8.76377 3.53071 8 3.53071C7.23623 3.53071 6.56839 3.54968 5.98333 3.58764V4.07687C5.98333 4.43586 5.69232 4.72687 5.33333 4.72687C4.97435 4.72687 4.68333 4.43586 4.68333 4.07687V3.72252ZM14.7 9.61533C14.7 9.18752 14.6928 8.78963 14.6774 8.41918H1.32264C1.30723 8.78963 1.3 9.18752 1.3 9.61533C1.3 12.6923 1.6961 13.9727 2.41126 14.6329C2.76712 14.9613 3.31241 15.2392 4.23194 15.4278C5.16083 15.6184 6.38016 15.6999 8 15.6999C9.61984 15.6999 10.8392 15.6184 11.7681 15.4278C12.6876 15.2392 13.2329 14.9613 13.5887 14.6329C14.3039 13.9727 14.7 12.6923 14.7 9.61533Z" fill="white"/>
<path fill-rule="evenodd" clip-rule="evenodd" d="M3.34961 10.8463C3.34961 10.4873 3.64062 10.1963 3.99961 10.1963H5.99961C6.35859 10.1963 6.64961 10.4873 6.64961 10.8463C6.64961 11.2053 6.35859 11.4963 5.99961 11.4963H3.99961C3.64062 11.4963 3.34961 11.2053 3.34961 10.8463ZM9.99961 10.1963C9.64062 10.1963 9.34961 10.4873 9.34961 10.8463C9.34961 11.2053 9.64062 11.4963 9.99961 11.4963H11.9996C12.3586 11.4963 12.6496 11.2053 12.6496 10.8463C12.6496 10.4873 12.3586 10.1963 11.9996 10.1963H9.99961ZM9.99961 12.6578C9.64062 12.6578 9.34961 12.9488 9.34961 13.3078C9.34961 13.6668 9.64062 13.9578 9.99961 13.9578H11.9996C12.3586 13.9578 12.6496 13.6668 12.6496 13.3078C12.6496 12.9488 12.3586 12.6578 11.9996 12.6578H9.99961ZM3.99961 12.6578C3.64062 12.6578 3.34961 12.9488 3.34961 13.3078C3.34961 13.6668 3.64062 13.9578 3.99961 13.9578H5.99961C6.35859 13.9578 6.64961 13.6668 6.64961 13.3078C6.64961 12.9488 6.35859 12.6578 5.99961 12.6578H3.99961Z" fill="white"/>
</svg>
