<svg width="25" height="25" viewBox="0 0 25 25" fill="none" xmlns="http://www.w3.org/2000/svg">
<path d="M12.5005 0C19.4045 0 25.001 5.59647 25.001 12.5005C25.001 19.4045 19.4045 25.001 12.5005 25.001C5.59647 25.001 0 19.4045 0 12.5005C0 5.59647 5.59647 0 12.5005 0ZM17.8969 8.51033C17.7609 8.37427 17.5793 8.29323 17.3872 8.28273C17.195 8.27224 17.0058 8.33303 16.8557 8.45345L16.7919 8.51033L10.4692 14.8331L8.20907 12.573C8.06779 12.4317 7.87772 12.3498 7.67796 12.3444C7.4782 12.3389 7.28393 12.4101 7.13511 12.5435C6.98629 12.6769 6.89423 12.8622 6.87787 13.0614C6.86151 13.2605 6.92209 13.4584 7.04715 13.6143L7.10403 13.678L9.91664 16.4906C10.0527 16.6267 10.2343 16.7077 10.4264 16.7182C10.6186 16.7287 10.8078 16.6679 10.9579 16.5475L11.0217 16.4906L17.8969 9.61538C17.9695 9.54282 18.0271 9.45669 18.0664 9.36188C18.1056 9.26708 18.1259 9.16547 18.1259 9.06285C18.1259 8.96024 18.1056 8.85863 18.0664 8.76382C18.0271 8.66902 17.9695 8.58288 17.8969 8.51033Z" fill="#282820"/>
</svg>
