<svg width="16" height="15" viewBox="0 0 16 15" fill="none" xmlns="http://www.w3.org/2000/svg">
<path fill-rule="evenodd" clip-rule="evenodd" d="M0 7.5C0 13.6763 1.412 15 8 15C14.588 15 16 13.6763 16 7.5C16 1.32375 14.588 0 8 0C1.412 0 0 1.32375 0 7.5ZM1.33333 7.5C1.33333 9.01553 1.42169 10.1481 1.62514 11.0063C1.82522 11.8503 2.11845 12.3505 2.47231 12.6822C2.82616 13.0139 3.35966 13.2889 4.25995 13.4764C5.17538 13.6672 6.38343 13.75 8 13.75C9.61657 13.75 10.8246 13.6672 11.74 13.4764C12.6403 13.2889 13.1738 13.0139 13.5277 12.6822C13.8815 12.3505 14.1748 11.8503 14.3749 11.0063C14.5783 10.1481 14.6667 9.01553 14.6667 7.5C14.6667 5.98447 14.5783 4.85192 14.3749 3.99371C14.1748 3.14968 13.8815 2.64953 13.5277 2.31779C13.1738 1.98605 12.6403 1.71115 11.74 1.52357C10.8246 1.33284 9.61657 1.25 8 1.25C6.38343 1.25 5.17538 1.33284 4.25995 1.52357C3.35966 1.71115 2.82616 1.98605 2.47231 2.31779C2.11845 2.64953 1.82522 3.14968 1.62514 3.99371C1.42169 4.85192 1.33333 5.98447 1.33333 7.5Z" fill="#828282"/>
<path d="M7.99996 3.0713C7.63177 3.0713 7.33329 3.35113 7.33329 3.6963V7.4463C7.33329 7.79147 7.63177 8.0713 7.99996 8.0713H12C12.3682 8.0713 12.6666 7.79147 12.6666 7.4463C12.6666 7.10113 12.3682 6.8213 12 6.8213H8.66663V3.6963C8.66663 3.35113 8.36815 3.0713 7.99996 3.0713Z" fill="#828282"/>
</svg>
