<svg width="18" height="18" viewBox="0 0 18 18" fill="none" xmlns="http://www.w3.org/2000/svg">
<path fill-rule="evenodd" clip-rule="evenodd" d="M7.31417 9.2713L3.94193 8.14722C1.58872 7.36281 0.412109 6.97061 0.412109 6.24985C0.412109 5.52909 1.58872 5.13689 3.94193 4.35249L14.7051 0.764762C16.3609 0.212833 17.1888 -0.063132 17.6258 0.373884C18.0628 0.8109 17.7869 1.6388 17.2349 3.29459L13.6472 14.0578C12.8628 16.411 12.4706 17.5876 11.7498 17.5876C11.0291 17.5876 10.6369 16.411 9.85246 14.0578L8.72838 10.6855L13.5819 5.83196C13.9725 5.44144 13.9725 4.80827 13.5819 4.41775C13.1914 4.02722 12.5582 4.02722 12.1677 4.41775L7.31417 9.2713Z" fill="#828282"/>
</svg>
