<svg width="20" height="16" viewBox="0 0 20 16" fill="none" xmlns="http://www.w3.org/2000/svg">
<path d="M19.9997 14.5276C19.9997 14.9799 19.5537 15.3458 19.0048 15.3458H10.995C10.7311 15.3458 10.478 15.2596 10.2914 15.1062C10.1048 14.9527 10 14.7446 10 14.5276C10 14.3106 10.1048 14.1025 10.2914 13.9491C10.478 13.7957 10.7311 13.7095 10.995 13.7095H19.0048C19.5547 13.7095 19.9997 14.0754 19.9997 14.5276Z" fill="black" fill-opacity="0.8"/>
<path d="M19.9995 8.02324C19.9995 8.47549 19.5535 8.8414 19.0045 8.8414H0.994973C0.73109 8.8414 0.478015 8.7552 0.291421 8.60176C0.104827 8.44833 0 8.24023 0 8.02324C0 7.80625 0.104827 7.59815 0.291421 7.44471C0.478015 7.29128 0.73109 7.20508 0.994973 7.20508H9.99973H19.0045C19.5545 7.20508 19.9995 7.57181 19.9995 8.02324Z" fill="black" fill-opacity="0.8"/>
<path d="M19.0047 2.33554C19.2685 2.33554 19.5216 2.24934 19.7082 2.09591C19.8948 1.94247 19.9996 1.73437 19.9996 1.51738C19.9996 1.30039 19.8948 1.09229 19.7082 0.938852C19.5216 0.785417 19.2685 0.699219 19.0047 0.699219H6.99497C6.86431 0.699219 6.73493 0.720381 6.61421 0.761497C6.4935 0.802614 6.38381 0.862879 6.29142 0.938852C6.19903 1.01483 6.12574 1.10502 6.07574 1.20428C6.02574 1.30355 6 1.40994 6 1.51738C6 1.62482 6.02574 1.73121 6.07574 1.83048C6.12574 1.92974 6.19903 2.01993 6.29142 2.09591C6.38381 2.17188 6.4935 2.23214 6.61421 2.27326C6.73493 2.31438 6.86431 2.33554 6.99497 2.33554H19.0047Z" fill="black" fill-opacity="0.8"/>
</svg>
