<svg width="15" height="18" viewBox="0 0 15 18" fill="none" xmlns="http://www.w3.org/2000/svg">
<path fill-rule="evenodd" clip-rule="evenodd" d="M7.5 1.33143C4.01068 1.33143 1.06723 4.06919 1.30698 7.47873C1.34136 7.96773 1.39276 8.39341 1.4628 8.73119C1.81613 10.4353 2.92522 12.1282 4.17445 13.5654C5.41304 14.9902 6.7318 16.0987 7.41325 16.6363C7.46771 16.6793 7.53229 16.6793 7.58675 16.6363C8.2682 16.0987 9.58696 14.9902 10.8256 13.5654C12.0748 12.1282 13.1839 10.4353 13.5372 8.73119C13.6072 8.39341 13.6586 7.96773 13.693 7.47873C13.9328 4.06919 10.9893 1.33143 7.5 1.33143ZM0.0176212 7.5749C-0.28826 3.22479 3.43549 0 7.5 0C11.5645 0 15.2883 3.22479 14.9824 7.5749C14.9457 8.09594 14.8887 8.58848 14.8014 9.00924C14.3778 11.0523 13.0907 12.9556 11.7887 14.4535C10.476 15.9635 9.08849 17.1287 8.37285 17.6933C7.85454 18.1022 7.14546 18.1022 6.62715 17.6933C5.91151 17.1287 4.52397 15.9635 3.21131 14.4535C1.90928 12.9556 0.622158 11.0523 0.198567 9.00924C0.111328 8.58848 0.0542587 8.09594 0.0176212 7.5749Z" fill="#333333"/>
<path fill-rule="evenodd" clip-rule="evenodd" d="M7.5 6.65716C6.90504 6.65716 6.42272 7.15391 6.42272 7.76669C6.42272 8.37946 6.90504 8.87621 7.5 8.87621C8.09496 8.87621 8.57728 8.37946 8.57728 7.76669C8.57728 7.15391 8.09496 6.65716 7.5 6.65716ZM5.12999 7.76669C5.12999 6.41858 6.19108 5.32573 7.5 5.32573C8.80892 5.32573 9.87001 6.41858 9.87001 7.76669C9.87001 9.11479 8.80892 10.2076 7.5 10.2076C6.19108 10.2076 5.12999 9.11479 5.12999 7.76669Z" fill="#333333"/>
</svg>
