<svg width="21" height="24" viewBox="0 0 21 24" fill="none" xmlns="http://www.w3.org/2000/svg">
<path d="M16.3395 4.71875C14.8796 3.03125 12.7328 2 10.5 2C8.26725 2 6.12037 2.9375 4.66049 4.71875C3.45824 6.21875 2.85711 8.09375 3.02887 9.96875C3.02887 10.3438 3.11474 10.7187 3.20062 11C3.97349 14.9375 7.92375 18.4062 9.64125 19.7188C9.89887 19.9062 10.1565 20 10.5 20C10.8435 20 11.1011 19.9062 11.3588 19.7188C12.9904 18.4062 17.0265 14.9375 17.7994 11C17.8853 10.7187 17.8853 10.3438 17.9711 9.96875C18.1429 8.09375 17.5418 6.21875 16.3395 4.71875ZM10.5 12C9.21187 12 8.5 11.6562 8.5 10.1562C8.5 8.65625 9.126 7.53125 10.5 7.53125C11.874 7.53125 12.5 8.65625 12.5 10.1562C12.5 11.6562 11.7881 12 10.5 12Z" fill="#333333"/>
<path fill-rule="evenodd" clip-rule="evenodd" d="M10.5 8.63636C9.74688 8.63636 9.13636 9.24688 9.13636 10C9.13636 10.7531 9.74688 11.3636 10.5 11.3636C11.2531 11.3636 11.8636 10.7531 11.8636 10C11.8636 9.24688 11.2531 8.63636 10.5 8.63636ZM7.5 10C7.5 8.34315 8.84314 7 10.5 7C12.1569 7 13.5 8.34315 13.5 10C13.5 11.6569 12.1569 13 10.5 13C8.84314 13 7.5 11.6569 7.5 10Z" fill="#333333"/>
</svg>
