<svg width="16" height="19" viewBox="0 0 16 19" fill="none" xmlns="http://www.w3.org/2000/svg">
<path d="M5 16.5513C6.5 17.8846 9.5 17.8846 11 16.5513" stroke="#333333" stroke-width="1.3" stroke-linecap="round" stroke-linejoin="round"/>
<path fill-rule="evenodd" clip-rule="evenodd" d="M8.79895 0.836201C8.79965 0.822566 8.8 0.80884 8.8 0.795031C8.8 0.355948 8.44183 0 8 0C7.55817 0 7.2 0.355948 7.2 0.795031C7.2 0.808849 7.20035 0.822585 7.20106 0.836229C4.52294 1.21985 2.00295 4.21302 2.40004 7.55256C2.6057 8.57448 1.95814 9.1159 1.28414 9.67942C0.647243 10.2119 -0.0132655 10.7642 0.00020255 11.7602C0.00020255 13.1563 0.800009 13.9128 1.97464 14.288C1.97464 14.288 4.12591 15.1054 8.0001 15.1054C11.8743 15.1054 14.0256 14.288 14.0256 14.288C15.2002 13.9128 16.0002 13.1178 16 11.7602C15.9999 10.7556 15.3398 10.2031 14.7064 9.67308C14.0354 9.1115 13.3944 8.57506 13.6002 7.55256C13.9973 4.21294 11.4771 1.2197 8.79895 0.836201ZM3.28666 9.45818C3.65663 8.87682 3.83552 8.17385 3.68608 7.35643C3.53563 5.98199 4.01733 4.65857 4.84671 3.66526C5.69784 2.64589 6.80747 2.09479 7.7753 2.09479H8.2249C9.19273 2.09479 10.3024 2.64589 11.1535 3.66526C11.9829 4.65856 12.4646 5.98196 12.3141 7.35637C12.1653 8.16975 12.3396 8.87065 12.7077 9.45253C13.0331 9.96699 13.4951 10.3541 13.799 10.6088L13.799 10.6088L13.8148 10.6221C14.5545 11.2421 14.7 11.4236 14.7 11.7604C14.7001 12.1656 14.588 12.4005 14.4554 12.5593C14.3083 12.7355 14.0524 12.9147 13.63 13.0496L13.5966 13.0603L13.5681 13.0712L13.568 13.0712L13.5618 13.0734C13.5529 13.0766 13.5359 13.0826 13.5108 13.0911C13.4606 13.108 13.3781 13.1346 13.2642 13.1679C13.0365 13.2345 12.6831 13.3275 12.2108 13.4219C11.2663 13.6107 9.84541 13.8054 8.0001 13.8054C6.15479 13.8054 4.7339 13.6107 3.7894 13.4219C3.31706 13.3275 2.96372 13.2345 2.73596 13.1679C2.62208 13.1346 2.53962 13.108 2.4894 13.0911C2.46429 13.0826 2.44725 13.0766 2.43837 13.0734L2.43223 13.0712L2.43215 13.0712L2.40358 13.0603L2.37019 13.0496C1.93314 12.91 1.6813 12.7353 1.54005 12.5681C1.41617 12.4214 1.3002 12.1918 1.3002 11.7602V11.7514L1.30008 11.7426C1.29585 11.4298 1.42486 11.2573 2.17437 10.6296L2.19047 10.6161C2.49599 10.3603 2.95944 9.97236 3.28666 9.45818Z" fill="#333333"/>
</svg>
