<svg width="16" height="19" viewBox="0 0 16 19" fill="none" xmlns="http://www.w3.org/2000/svg">
<path d="M8.27731 1.27992L8.29953 0.826151C8.29987 0.819214 8.3 0.813423 8.3 0.80851C8.3 0.633126 8.1607 0.5 8 0.5C7.8393 0.5 7.7 0.633124 7.7 0.80851C7.7 0.813451 7.70014 0.819296 7.70048 0.826201L7.7227 1.27995L7.27315 1.34543C6.09068 1.51767 4.90122 2.28685 4.04899 3.43627C3.20395 4.576 2.71833 6.05376 2.89452 7.60456C3.01716 8.25034 2.87498 8.77289 2.59118 9.2096C2.33054 9.61066 1.95225 9.93214 1.63332 10.2032L8.27731 1.27992ZM8.27731 1.27992L8.72688 1.34539C9.90939 1.51758 11.0989 2.28674 11.9512 3.43618C12.7962 4.57591 13.2819 6.0537 13.1057 7.60455C12.9832 8.24912 13.1227 8.7703 13.4047 9.20638C13.6634 9.60643 14.0395 9.92643 14.3568 10.1963C14.3654 10.2036 14.3739 10.2109 14.3824 10.2181L14.3824 10.2181C15.0364 10.7747 15.4999 11.1975 15.5 11.9599C15.5001 12.5471 15.3326 12.9789 15.0669 13.3025C14.7961 13.6323 14.3938 13.8851 13.8711 14.0549L13.8581 14.0592L13.8461 14.0638L13.846 14.0638L13.8458 14.0639L13.8456 14.064L13.8454 14.0641L13.8435 14.0648L13.8293 14.0701C13.8156 14.075 13.7937 14.0829 13.7636 14.0932C13.7035 14.1137 13.6109 14.1441 13.4865 14.1811C13.2377 14.255 12.862 14.3553 12.3661 14.4561C11.3743 14.6578 9.9013 14.8617 8.0001 14.8617C6.0989 14.8617 4.62594 14.6578 3.63414 14.4561C3.1382 14.3553 2.76251 14.255 2.51372 14.1811C2.38933 14.1441 2.29666 14.1137 2.23656 14.0932C2.20652 14.0829 2.18461 14.075 2.17095 14.0701L2.15666 14.0648L2.15482 14.0641L2.15457 14.064L2.15437 14.0639L2.15418 14.0638L2.15411 14.0638L2.14208 14.0592L2.12909 14.0549C1.60071 13.8833 1.20001 13.6382 0.931557 13.315C0.669152 12.9991 0.500203 12.5694 0.500203 11.9599H0.500247L0.500159 11.9532C0.490205 11.205 0.94798 10.7859 1.60796 10.2247L8.27731 1.27992Z" fill="#333333" stroke="#333333"/>
<path d="M5 16.5C6.5 17.8333 9.5 17.8333 11 16.5" stroke="#333333" stroke-width="1.3" stroke-linecap="round" stroke-linejoin="round"/>
</svg>
