<svg width="23" height="23" viewBox="0 0 23 23" fill="none" xmlns="http://www.w3.org/2000/svg">
<circle cx="11.5" cy="11.5" r="11.5" fill="url(#paint0_linear)"/>
<path d="M12.2927 12.5709C12.6794 12.8433 13.0847 13.0723 13.5026 13.2456C13.762 13.3397 14.1692 13.0733 14.4685 12.8774L14.4686 12.8773C14.5434 12.8284 14.6115 12.7838 14.6688 12.7504L14.6877 12.7398C14.9696 12.5815 15.2828 12.4056 15.6854 12.4904C16.0471 12.5647 17.2882 13.5428 17.6312 13.8894C17.8557 14.1123 17.9804 14.3475 17.9991 14.5889C18.0366 15.4865 16.8329 16.4955 16.546 16.6688C15.9348 17.1145 15.1179 17.1083 14.1325 16.6626C13.0785 16.2355 11.8187 15.3379 10.6026 14.2484C10.1673 13.8584 9.33125 13.0373 9.09333 12.7631C7.86473 11.4322 6.82946 10.0022 6.34301 8.84468C6.11226 8.35566 6 7.90377 6 7.50141C6 7.10523 6.11226 6.75239 6.33054 6.44907C6.46151 6.22003 7.51548 4.96961 8.44473 5.00056C8.67548 5.02533 8.91247 5.14294 9.14322 5.36579C9.49247 5.70625 10.4966 6.9381 10.5714 7.30332C10.6568 7.69681 10.4797 8.00741 10.3202 8.28724L10.3202 8.28724L10.3095 8.30613C10.2735 8.36825 10.2248 8.44193 10.1715 8.52248C9.97518 8.81923 9.71721 9.20921 9.80991 9.45751C10.0413 10.027 10.3718 10.5841 10.7703 11.0979C11.2126 11.6267 11.906 12.2985 12.2927 12.5709Z" stroke="white" stroke-width="1.3"/>
<defs>
<linearGradient id="paint0_linear" x1="11.5" y1="0" x2="11.5" y2="23" gradientUnits="userSpaceOnUse">
<stop stop-color="#FFC637"/>
<stop offset="1" stop-color="#FFB42B"/>
</linearGradient>
</defs>
</svg>
