<svg width="18" height="18" viewBox="0 0 18 18" fill="none" xmlns="http://www.w3.org/2000/svg">
<path d="M9.43905 11.3563C10.019 11.7649 10.6271 12.1084 11.2539 12.3684C11.6431 12.5096 12.2538 12.1099 12.7028 11.816C12.815 11.7426 12.9172 11.6757 13.0032 11.6256L13.0315 11.6098C13.4545 11.3722 13.9241 11.1085 14.5281 11.2356C15.0707 11.3471 16.9323 12.8141 17.4468 13.3341C17.7836 13.6684 17.9707 14.0212 17.9987 14.3833C18.0548 15.7297 16.2494 17.2432 15.819 17.5032C14.9023 18.1718 13.6768 18.1625 12.1987 17.4939C10.6178 16.8532 8.72808 15.5069 6.90389 13.8727C6.25088 13.2877 4.99687 12.056 4.64 11.6446C2.7971 9.64828 1.24419 7.50337 0.514517 5.76702C0.168388 5.03348 0 4.35566 0 3.75211C0 3.15785 0.168387 2.62859 0.495807 2.17361C0.692258 1.83005 2.27322 -0.0455799 3.66709 0.00084727C4.01322 0.0379876 4.36871 0.214409 4.71484 0.54868C5.23871 1.05937 6.74483 2.90715 6.85709 3.45498C6.98517 4.04521 6.7196 4.51112 6.48034 4.93087L6.46419 4.9592C6.41027 5.05237 6.33716 5.16289 6.25723 5.28372C5.96278 5.72884 5.57581 6.31382 5.71487 6.68627C6.06193 7.54052 6.55774 8.37619 7.15551 9.14687C7.81893 9.94008 8.85905 10.9478 9.43905 11.3563Z" fill="#333333"/>
</svg>
