<svg width="19" height="20" viewBox="0 0 19 20" fill="none" xmlns="http://www.w3.org/2000/svg">
<path d="M9.91466 12.2254C10.4624 12.6113 11.0367 12.9358 11.6287 13.1813C11.9962 13.3146 12.573 12.9371 12.9971 12.6596L12.9972 12.6595C13.1032 12.5902 13.1996 12.5271 13.2808 12.4797L13.3075 12.4648C13.707 12.2404 14.1506 11.9913 14.721 12.1114C15.2334 12.2167 16.9916 13.6022 17.4775 14.0933C17.7956 14.409 17.9723 14.7423 17.9988 15.0843C18.0518 16.3558 16.3466 17.7853 15.9402 18.0308C15.0744 18.6622 13.917 18.6534 12.521 18.022C11.0279 17.4169 9.24319 16.1454 7.52034 14.602C6.90361 14.0495 5.71927 12.8862 5.38222 12.4977C3.6417 10.6123 2.17507 8.58652 1.48593 6.94663C1.15903 6.25385 1 5.61368 1 5.04366C1 4.48242 1.15903 3.98256 1.46826 3.55285C1.6538 3.22838 3.14693 1.45695 4.46337 1.5008C4.79027 1.53588 5.126 1.7025 5.4529 2.0182C5.94767 2.50052 7.37012 4.24564 7.47614 4.76304C7.59711 5.32048 7.34629 5.7605 7.12032 6.15692L7.12032 6.15693L7.10507 6.18369C7.05414 6.27168 6.98509 6.37606 6.9096 6.49018L6.9096 6.49018C6.63151 6.91057 6.26604 7.46305 6.39737 7.81481C6.72516 8.6216 7.19342 9.41085 7.75798 10.1387C8.38454 10.8879 9.36688 11.8396 9.91466 12.2254Z" stroke="#333333" stroke-width="1.3"/>
</svg>
