<svg width="23" height="23" viewBox="0 0 23 23" fill="none" xmlns="http://www.w3.org/2000/svg">
<path fill-rule="evenodd" clip-rule="evenodd" d="M11.5 23C17.8513 23 23 17.8513 23 11.5C23 5.14873 17.8513 0 11.5 0C5.14873 0 0 5.14873 0 11.5C0 17.8513 5.14873 23 11.5 23ZM7.84632 9.96679C6.62907 10.4983 5.37837 11.0443 4.23472 11.6743C3.63752 12.1115 4.43125 12.4208 5.1759 12.7109C5.29428 12.7571 5.41142 12.8027 5.52153 12.8483C5.61315 12.8764 5.70632 12.9061 5.80074 12.9362C6.62892 13.2001 7.5524 13.4943 8.35642 13.0517C9.6772 12.293 10.9236 11.4159 12.1691 10.5393C12.5772 10.2522 12.9851 9.96509 13.3955 9.68226C13.4148 9.66994 13.4365 9.65586 13.4603 9.64046C13.81 9.41379 14.5961 8.90419 14.3053 9.60651C13.6175 10.3587 12.8807 11.0246 12.14 11.694C11.6408 12.1452 11.1398 12.5981 10.6507 13.0801C10.2246 13.4262 9.78232 14.1222 10.2593 14.6069C11.3569 15.3753 12.4717 16.1251 13.5858 16.8744C13.9497 17.1192 14.3137 17.364 14.6769 17.6093C15.2906 18.0993 16.2499 17.703 16.3848 16.9372C16.4448 16.5854 16.5049 16.2335 16.5651 15.8816C16.8981 13.9346 17.2313 11.9869 17.5256 10.0335C17.5655 9.72732 17.6108 9.4211 17.6562 9.11473C17.7661 8.37178 17.8762 7.62793 17.9106 6.88098C17.822 6.13568 16.9183 6.29958 16.4154 6.46717C13.8305 7.45075 11.2715 8.50724 8.72254 9.58236C8.43376 9.7103 8.14102 9.83812 7.84632 9.96679Z" fill="url(#paint0_linear)"/>
<defs>
<linearGradient id="paint0_linear" x1="11.5" y1="0" x2="11.5" y2="23" gradientUnits="userSpaceOnUse">
<stop stop-color="#32B6F8"/>
<stop offset="1" stop-color="#0583C1"/>
</linearGradient>
</defs>
</svg>
