<svg width="15" height="18" viewBox="0 0 15 18" fill="none" xmlns="http://www.w3.org/2000/svg">
<path d="M7.5 8.81628C10.049 8.81628 12.1154 6.84269 12.1154 4.40814C12.1154 1.97359 10.049 0 7.5 0C4.95099 0 2.88462 1.97359 2.88462 4.40814C2.88462 6.84269 4.95099 8.81628 7.5 8.81628Z" fill="#333333"/>
<path d="M9.90385 10.6531H5.09615C2.30769 10.6531 0 12.8572 0 15.5204C0 16.1633 0.288462 16.7143 0.865385 16.9898C1.73077 17.449 3.65385 18 7.5 18C11.3462 18 13.2692 17.449 14.1346 16.9898C14.6154 16.7143 15 16.1633 15 15.5204C15 12.7653 12.6923 10.6531 9.90385 10.6531Z" fill="#333333"/>
</svg>
