<svg width="15" height="18" viewBox="0 0 15 18" fill="none" xmlns="http://www.w3.org/2000/svg">
<path fill-rule="evenodd" clip-rule="evenodd" d="M7.5 1.38462C5.76298 1.38462 4.35484 2.72776 4.35484 4.38462C4.35484 6.04147 5.76298 7.38462 7.5 7.38462C9.23702 7.38462 10.6452 6.04147 10.6452 4.38462C10.6452 2.72776 9.23702 1.38462 7.5 1.38462ZM2.90323 4.38462C2.90323 1.96306 4.96127 0 7.5 0C10.0387 0 12.0968 1.96306 12.0968 4.38462C12.0968 6.80617 10.0387 8.76923 7.5 8.76923C4.96127 8.76923 2.90323 6.80617 2.90323 4.38462Z" fill="#333333"/>
<path fill-rule="evenodd" clip-rule="evenodd" d="M5.12454 12C3.09604 12 1.45161 13.5685 1.45161 15.5034C1.45161 15.605 1.47108 15.6767 1.49149 15.7185C1.50871 15.7537 1.52349 15.7637 1.53582 15.7701C2.09988 16.0629 3.68139 16.6154 7.5 16.6154C11.3186 16.6154 12.9001 16.0629 13.4642 15.7701C13.4765 15.7637 13.4913 15.7537 13.5085 15.7185C13.5289 15.6767 13.5484 15.605 13.5484 15.5034C13.5484 13.5685 11.904 12 9.87546 12H5.12454ZM0 15.5034C0 12.8038 2.29433 10.6154 5.12454 10.6154H9.87546C12.7057 10.6154 15 12.8038 15 15.5034C15 15.999 14.8119 16.647 14.158 16.9864C13.2918 17.4359 11.4336 18 7.5 18C3.56638 18 1.70818 17.4359 0.841986 16.9864C0.188094 16.647 0 15.999 0 15.5034Z" fill="#333333"/>
</svg>
