<svg width="23" height="23" viewBox="0 0 23 23" fill="none" xmlns="http://www.w3.org/2000/svg">
<circle cx="11.5" cy="11.5" r="11.5" fill="url(#paint0_linear)"/>
<g clip-path="url(#clip0)">
<path fill-rule="evenodd" clip-rule="evenodd" d="M18.1562 7.9655C18.26 7.6015 18.1562 7.3335 17.6594 7.3335H16.0188C15.6013 7.3335 15.4087 7.56483 15.3044 7.82016C15.3044 7.82016 14.47 9.95083 13.2881 11.3348C12.9056 11.7362 12.7319 11.8635 12.5231 11.8635C12.4187 11.8635 12.2619 11.7362 12.2619 11.3715V7.9655C12.2619 7.52816 12.1469 7.3335 11.7994 7.3335H9.21938C8.95875 7.3335 8.80188 7.53616 8.80188 7.72883C8.80188 8.14283 9.39313 8.23883 9.45375 9.40416V11.9362C9.45375 12.4915 9.35812 12.5922 9.14937 12.5922C8.59312 12.5922 7.24 10.4515 6.43687 8.00216C6.28125 7.5255 6.12375 7.3335 5.70438 7.3335H4.0625C3.59375 7.3335 3.5 7.56483 3.5 7.82016C3.5 8.27483 4.05625 10.5335 6.09063 13.5208C7.44688 15.5608 9.35625 16.6668 11.0956 16.6668C12.1388 16.6668 12.2675 16.4215 12.2675 15.9982V14.4562C12.2675 13.9648 12.3663 13.8668 12.6969 13.8668C12.9406 13.8668 13.3575 13.9948 14.3313 14.9782C15.4438 16.1442 15.6269 16.6668 16.2531 16.6668H17.8938C18.3625 16.6668 18.5975 16.4215 18.4625 15.9362C18.3138 15.4535 17.7825 14.7528 17.0781 13.9215C16.6956 13.4482 16.1219 12.9382 15.9475 12.6828C15.7044 12.3555 15.7738 12.2095 15.9475 11.9182C15.9475 11.9182 17.9475 8.9675 18.1556 7.9655H18.1562Z" fill="white"/>
</g>
<defs>
<linearGradient id="paint0_linear" x1="11.5" y1="0" x2="11.5" y2="23" gradientUnits="userSpaceOnUse">
<stop stop-color="#006FFA"/>
<stop offset="1" stop-color="#006FFA"/>
</linearGradient>
<clipPath id="clip0">
<rect width="15" height="16" fill="white" transform="translate(3.5 4)"/>
</clipPath>
</defs>
</svg>
