<svg width="23" height="23" viewBox="0 0 23 23" fill="none" xmlns="http://www.w3.org/2000/svg">
<path fill-rule="evenodd" clip-rule="evenodd" d="M11.5 23C17.8513 23 23 17.8513 23 11.5C23 5.14873 17.8513 0 11.5 0C5.14873 0 0 5.14873 0 11.5C0 17.8513 5.14873 23 11.5 23ZM4.8875 18.1125L5.85798 14.5691C5.25942 13.5321 4.94451 12.3556 4.9449 11.1504C4.94643 7.37998 8.01481 4.3125 11.7854 4.3125C13.6151 4.31339 15.3325 5.02547 16.6242 6.31803C17.9155 7.61059 18.6265 9.32862 18.6259 11.1559C18.6242 14.9261 15.5553 17.9941 11.7854 17.9941H11.7824C10.6377 17.9937 9.51286 17.7065 8.51369 17.1616L4.8875 18.1125ZM11.7876 5.46758C8.65143 5.46758 6.10102 8.01707 6.09986 11.1508C6.0994 12.2247 6.39993 13.2706 6.96902 14.1756L7.10431 14.3906L6.5298 16.4878L8.68167 15.9236L8.88945 16.0467C9.76218 16.5647 10.7628 16.8386 11.7832 16.8391H11.7854C14.9191 16.8391 17.4695 14.2894 17.4708 11.1554C17.4713 9.63671 16.8806 8.20861 15.8071 7.13436C14.7336 6.0601 13.3063 5.46823 11.7876 5.46758ZM9.69121 7.99634C9.81292 8.00133 9.9477 8.0071 10.0758 8.29165C10.1634 8.48646 10.3109 8.84984 10.4283 9.1391C10.5145 9.35165 10.5846 9.52418 10.6026 9.56038C10.6454 9.64583 10.6739 9.74563 10.6168 9.85978C10.6084 9.87666 10.6006 9.8926 10.5931 9.90784C10.5502 9.99542 10.5188 10.0597 10.4462 10.1447C10.4174 10.1782 10.3877 10.2144 10.358 10.2505C10.2993 10.3219 10.2407 10.3933 10.1897 10.4441C10.104 10.5293 10.015 10.6218 10.1146 10.7929C10.2144 10.9639 10.5574 11.5234 11.0655 11.9764C11.6113 12.4631 12.0855 12.6689 12.3263 12.7734C12.3736 12.794 12.4119 12.8106 12.4399 12.8246C12.611 12.9101 12.7106 12.8959 12.8103 12.7817C12.9101 12.6677 13.2374 12.2828 13.3513 12.1118C13.4654 11.9408 13.5793 11.9692 13.7359 12.0262C13.8926 12.0832 14.7329 12.4968 14.9038 12.5822C14.9372 12.5989 14.9683 12.6139 14.9972 12.6278C15.1165 12.6854 15.1971 12.7243 15.2316 12.7817C15.2742 12.8532 15.2742 13.1952 15.1318 13.5942C14.9894 13.9933 14.2916 14.3783 13.9782 14.4067C13.948 14.4095 13.918 14.413 13.8872 14.4166C13.5975 14.4507 13.2319 14.4936 11.9272 13.9791C10.3212 13.3459 9.2625 11.7764 9.04404 11.4525C9.02625 11.4261 9.0139 11.4078 9.00745 11.3992L9.00537 11.3964C8.91266 11.2725 8.30961 10.466 8.30961 9.63161C8.30961 8.84451 8.69648 8.43193 8.87449 8.24208C8.88667 8.22909 8.89787 8.21714 8.90791 8.20619C9.06446 8.03516 9.24959 7.99237 9.36362 7.99237L9.38211 7.99237C9.4898 7.99235 9.59694 7.99234 9.69121 7.99634Z" fill="url(#paint0_linear)"/>
<defs>
<linearGradient id="paint0_linear" x1="11.5" y1="0" x2="11.5" y2="23" gradientUnits="userSpaceOnUse">
<stop stop-color="#4FCA5D"/>
<stop offset="1" stop-color="#35BC49"/>
</linearGradient>
</defs>
</svg>
