<svg width="16" height="18" viewBox="0 0 16 18" fill="none" xmlns="http://www.w3.org/2000/svg">
<path fill-rule="evenodd" clip-rule="evenodd" d="M0.249405 16.0204C0.141889 14.7208 -2.24756e-05 12.3555 7.94058e-07 8.92464V8.8631C-2.49551e-05 7.52033 -4.76497e-05 6.29997 0.107643 5.2712C0.216688 4.22949 0.450601 3.19387 1.05749 2.31644C2.36371 0.427908 4.82081 0.0125109 7.99339 0.000263736C11.1728 -0.0120096 13.6361 0.399004 14.9446 2.30091C15.55 3.1809 15.7835 4.22018 15.8924 5.26478C16 6.29714 16 7.52038 16 8.86371V8.92465C16 12.3555 15.8581 14.7208 15.7506 16.0204C15.6116 17.7003 13.6011 18.5531 12.1627 17.6068C11.3098 17.06 10.5245 16.4738 9.93095 16.0308C9.65167 15.8224 9.41483 15.6456 9.2334 15.5195C8.56218 15.0531 8.27493 14.9993 8 14.9993C7.72506 14.9993 7.43781 15.0531 6.76658 15.5195C6.58517 15.6456 6.34828 15.8224 6.06903 16.0308C5.47547 16.4738 4.69015 17.0599 3.83732 17.6068C2.39888 18.5531 0.388382 17.7003 0.249405 16.0204ZM9.6 4.5C10.0327 4.5 10.2155 4.50466 10.367 4.54291C10.4727 4.5696 10.6053 4.62442 10.835 4.83921C10.8368 4.8411 10.8557 4.86124 10.8841 4.91386C10.9144 4.97008 10.9474 5.04819 10.9799 5.15097C11.0456 5.35859 11.0951 5.62099 11.1299 5.91453C11.1993 6.50112 11.2 7.11901 11.2 7.49707C11.2 7.91129 8.35817 3.75 8.8 3.75C9.24183 3.75 12.8 7.91129 12.8 7.49707V7.48819C12.8 7.11414 12.8 6.42374 12.7201 5.74902C12.6799 5.40922 9.33646 9.25036 9.2334 8.92465C9.13576 8.61605 12.2563 4.04958 11.965 3.77718C11.5947 3.43092 11.2273 3.20665 10.783 3.0945C10.4059 2.99931 10.0119 2.99966 9.65946 2.99997L9.6 3C9.15817 3 8.8 3.33579 8.8 3.75C8.8 4.16421 9.15817 4.5 9.6 4.5Z" fill="#D40000"/>
<ellipse cx="9.71387" cy="6.1875" rx="4" ry="3.9375" fill="#D40000"/>
</svg>
