<svg width="18" height="18" viewBox="0 0 18 18" fill="none" xmlns="http://www.w3.org/2000/svg">
<path d="M5.48645 17.0596L5.48643 17.0596L5.48008 17.0638C4.3931 17.7789 2.98965 17.0844 2.89719 15.9668C2.79115 14.685 2.64998 12.3375 2.65 8.92464V8.8631C2.64997 7.50971 2.6507 6.32678 2.75411 5.33887C2.85877 4.33904 3.07659 3.43148 3.59208 2.68619C4.68759 1.1023 6.80191 0.662589 9.9959 0.650259C13.1944 0.637912 15.3123 1.07523 16.4091 2.66934C16.9237 3.41737 17.1413 4.329 17.2459 5.33219C17.3493 6.32386 17.35 7.50987 17.35 8.86372V8.92465C17.35 12.3376 17.2088 14.685 17.1028 15.9668C17.0103 17.0844 15.6069 17.7788 14.5199 17.0638L14.5199 17.0638L14.5135 17.0597C13.6828 16.5269 12.9147 15.954 12.3197 15.5099L12.3106 15.5031C12.0387 15.3001 11.7948 15.1181 11.6043 14.9857C11.2473 14.7376 10.9581 14.5747 10.6977 14.4764C10.4188 14.3711 10.1975 14.3493 10 14.3493C9.80247 14.3493 9.5812 14.3711 9.30233 14.4764C9.04189 14.5747 8.75271 14.7376 8.39567 14.9857L8.74198 15.4841L8.39567 14.9857C8.20507 15.1182 7.96097 15.3004 7.68883 15.5035L7.68025 15.5099C7.08526 15.954 6.31724 16.5269 5.48645 17.0596Z" stroke="#333333" stroke-width="1.3" stroke-linecap="round" stroke-linejoin="round"/>
</svg>
