<svg width="9" height="12" viewBox="0 0 9 12" fill="none" xmlns="http://www.w3.org/2000/svg">
<path d="M0.642689 10.5268H8.35731C8.5202 10.5268 8.67699 10.5857 8.79601 10.6914C8.91503 10.7971 8.9874 10.9418 8.9985 11.0963C9.00961 11.2507 8.95861 11.4035 8.85582 11.5236C8.75303 11.6437 8.60611 11.7222 8.44474 11.7433L8.35731 11.749H4.5H0.642689C0.479805 11.749 0.323012 11.6902 0.203991 11.5845C0.0849713 11.4787 0.0125983 11.334 0.00149611 11.1796C-0.00960608 11.0251 0.0413902 10.8724 0.144181 10.7523C0.246972 10.6322 0.393893 10.5536 0.555257 10.5325L0.642689 10.5268ZM4.41257 0.754727L4.5 0.749023C4.65535 0.74903 4.80545 0.80251 4.92253 0.899574C5.03961 0.996639 5.11576 1.13072 5.13688 1.27702L5.14289 1.36013V7.62443L7.07583 5.78784C7.18484 5.68425 7.32937 5.62134 7.48309 5.61057C7.63681 5.5998 7.78948 5.64189 7.91329 5.72917L7.98529 5.78784C8.09427 5.89146 8.16045 6.02885 8.17178 6.17497C8.18311 6.3211 8.13883 6.46623 8.04701 6.58391L7.98529 6.65236L4.95431 9.53273C4.84545 9.63622 4.70114 9.69915 4.54762 9.71007C4.39409 9.72098 4.24153 9.67916 4.1177 9.59221L4.04569 9.53273L1.01471 6.65236C0.899678 6.54331 0.832343 6.39692 0.826238 6.24261C0.820134 6.08829 0.875713 5.93751 0.9818 5.82056C1.08789 5.70361 1.23662 5.62918 1.39809 5.61223C1.55955 5.59527 1.72179 5.63705 1.85217 5.72917L1.92417 5.78784L3.85711 7.62606V1.36013C3.85712 1.21246 3.91338 1.06978 4.01549 0.958487C4.1176 0.847193 4.25866 0.774811 4.41257 0.754727Z" fill="#333333"/>
</svg>
