<svg width="18" height="19" viewBox="0 0 18 19" fill="none" xmlns="http://www.w3.org/2000/svg">
<path fill-rule="evenodd" clip-rule="evenodd" d="M11.5929 0.233743C11.253 0.410039 11.0013 0.767047 11.0013 1.18975V5.35255C11.0013 5.90848 11.4405 6.41667 12.0518 6.41667H16.0336C16.4525 6.41667 16.7584 6.20779 16.9277 5.9192C16.99 6.18343 17.0221 6.45652 17.0221 6.73293V14.6175C17.0221 16.4964 15.5652 18.0196 13.768 18.0196H4.23464C2.43741 18.0196 0.980469 16.4964 0.980469 14.6175V3.55833C0.980469 1.67941 2.43741 0.15625 4.23464 0.15625H10.9022C11.1363 0.15625 11.3678 0.182623 11.5929 0.233743ZM12.5013 4.91667V2.30053L15.0037 4.91667H12.5013ZM6.2513 12.5833C6.2513 12.1691 6.58709 11.8333 7.0013 11.8333H11.0013C11.4155 11.8333 11.7513 12.1691 11.7513 12.5833C11.7513 12.9975 11.4155 13.3333 11.0013 13.3333H7.0013C6.58709 13.3333 6.2513 12.9975 6.2513 12.5833ZM6.08464 8.95833C5.67042 8.95833 5.33464 9.29411 5.33464 9.70833C5.33464 10.1225 5.67042 10.4583 6.08464 10.4583H11.918C12.3322 10.4583 12.668 10.1225 12.668 9.70833C12.668 9.29411 12.3322 8.95833 11.918 8.95833H6.08464Z" fill="#FFB52B"/>
</svg>
