<svg width="16" height="18" viewBox="0 0 16 18" fill="none" xmlns="http://www.w3.org/2000/svg">
<path fill-rule="evenodd" clip-rule="evenodd" d="M1.17157 1.17157C0 2.34315 0 4.22877 0 8.00001V9.86C0 13.6312 0 15.5169 1.17157 16.6884C2.34315 17.86 4.22876 17.86 8 17.86C11.7712 17.86 13.6569 17.86 14.8284 16.6884C16 15.5169 16 13.6312 16 9.85999V8C16 4.22876 16 2.34315 14.8284 1.17157C13.6569 0 11.7712 0 8 0C4.22876 0 2.34315 0 1.17157 1.17157ZM4.57422 4.50293C4.16001 4.50293 3.82422 4.83872 3.82422 5.25293C3.82422 5.66714 4.16001 6.00293 4.57422 6.00293H11.4314C11.8456 6.00293 12.1814 5.66714 12.1814 5.25293C12.1814 4.83872 11.8456 4.50293 11.4314 4.50293H4.57422ZM4.57422 8.70528C4.16001 8.70528 3.82422 9.04107 3.82422 9.45528C3.82422 9.8695 4.16001 10.2053 4.57422 10.2053H11.4314C11.8456 10.2053 12.1814 9.8695 12.1814 9.45528C12.1814 9.04107 11.8456 8.70528 11.4314 8.70528H4.57422ZM4.57422 12.9076C4.16001 12.9076 3.82422 13.2434 3.82422 13.6576C3.82422 14.0718 4.16001 14.4076 4.57422 14.4076H9.14565C9.55986 14.4076 9.89565 14.0718 9.89565 13.6576C9.89565 13.2434 9.55986 12.9076 9.14565 12.9076H4.57422Z" fill="#CCD2E3"/>
</svg>
