<svg width="18" height="19" viewBox="0 0 18 19" fill="none" xmlns="http://www.w3.org/2000/svg">
<path fill-rule="evenodd" clip-rule="evenodd" d="M0 9.44922C0 16.8607 1.5885 18.4492 9 18.4492C16.4115 18.4492 18 16.8607 18 9.44922C18 7.41228 17.88 5.81517 17.5521 4.57C16.7126 5.48818 15.6532 6.59232 14.5026 7.57579C12.8706 8.97063 10.8941 10.2674 9 10.2674C7.10589 10.2674 5.12941 8.97063 3.49745 7.57579C2.34679 6.59232 1.2874 5.48818 0.447866 4.57C0.119987 5.81517 0 7.41228 0 9.44922ZM6 12.7219C5.58579 12.7219 5.25 13.0883 5.25 13.5401C5.25 13.992 5.58579 14.3583 6 14.3583H12C12.4142 14.3583 12.75 13.992 12.75 13.5401C12.75 13.0883 12.4142 12.7219 12 12.7219H6Z" fill="#FFB52B"/>
<path d="M13.5775 6.28768C14.854 5.19658 16.0197 3.94065 16.8985 2.96358C15.7073 0.999527 13.3623 0.449219 9 0.449219C4.6377 0.449219 2.29268 0.999527 1.1015 2.96358C1.98031 3.94065 3.14595 5.19658 4.42255 6.28768C6.03059 7.66208 7.65411 8.63104 9 8.63104C10.3459 8.63104 11.9694 7.66208 13.5775 6.28768Z" fill="#FFB52B"/>
</svg>
