<svg width="16" height="19" viewBox="0 0 16 19" fill="none" xmlns="http://www.w3.org/2000/svg">
<path d="M8.27731 1.72914L8.29953 1.27537C8.29987 1.26843 8.3 1.26264 8.3 1.25773C8.3 1.08235 8.1607 0.949219 8 0.949219C7.8393 0.949219 7.7 1.08234 7.7 1.25773C7.7 1.26267 7.70014 1.26851 7.70048 1.27542L7.7227 1.72917L7.27315 1.79465C6.09068 1.96689 4.90122 2.73607 4.04899 3.88549C3.20395 5.02522 2.71833 6.50297 2.89452 8.05377C3.01716 8.69955 2.87498 9.22211 2.59118 9.65882C2.33054 10.0599 1.95225 10.3814 1.63332 10.6524L8.27731 1.72914ZM8.27731 1.72914L8.72688 1.7946C9.90939 1.9668 11.0989 2.73596 11.9512 3.8854C12.7962 5.02513 13.2819 6.50292 13.1057 8.05377C12.9832 8.69834 13.1227 9.21951 13.4047 9.65559C13.6634 10.0556 14.0395 10.3756 14.3568 10.6456C14.3654 10.6528 14.3739 10.6601 14.3824 10.6673L14.3824 10.6673C15.0364 11.2239 15.4999 11.6467 15.5 12.4091C15.5001 12.9964 15.3326 13.4281 15.0669 13.7517C14.7961 14.0815 14.3938 14.3344 13.8711 14.5042L13.8581 14.5084L13.8461 14.513L13.846 14.5131L13.8458 14.5131L13.8456 14.5132L13.8454 14.5133L13.8435 14.514L13.8293 14.5193C13.8156 14.5242 13.7937 14.5321 13.7636 14.5424C13.7035 14.5629 13.6109 14.5933 13.4865 14.6303C13.2377 14.7042 12.862 14.8045 12.3661 14.9053C11.3743 15.107 9.9013 15.3109 8.0001 15.3109C6.0989 15.3109 4.62594 15.107 3.63414 14.9053C3.1382 14.8045 2.76251 14.7042 2.51372 14.6303C2.38933 14.5933 2.29666 14.5629 2.23656 14.5424C2.20652 14.5321 2.18461 14.5242 2.17095 14.5193L2.15666 14.514L2.15482 14.5133L2.15457 14.5132L2.15437 14.5131L2.15418 14.5131L2.15411 14.513L2.14208 14.5084L2.12909 14.5042C1.60071 14.3325 1.20001 14.0874 0.931557 13.7642C0.669152 13.4483 0.500203 13.0186 0.500203 12.4091H0.500247L0.500159 12.4024C0.490205 11.6543 0.94798 11.2351 1.60796 10.6739L8.27731 1.72914Z" fill="#4F4F4F" stroke="#4F4F4F"/>
<path d="M5 16.9492C6.5 18.2826 9.5 18.2826 11 16.9492" stroke="#4F4F4F" stroke-linecap="round" stroke-linejoin="round"/>
</svg>
