<svg width="29" height="29" viewBox="0 0 29 29" fill="none" xmlns="http://www.w3.org/2000/svg">
<path fill-rule="evenodd" clip-rule="evenodd" d="M14.4016 28.2275C22.0102 28.2275 28.1782 22.0595 28.1782 14.4509C28.1782 6.84231 22.0102 0.674316 14.4016 0.674316C6.79299 0.674316 0.625 6.84231 0.625 14.4509C0.625 22.0595 6.79299 28.2275 14.4016 28.2275ZM21.2939 10.4989C21.6475 10.0746 21.5902 9.44408 21.1659 9.09052C20.7416 8.73695 20.1111 8.79428 19.7575 9.21855L13.5059 16.7205C13.1592 17.1366 12.9643 17.3669 12.8086 17.5084L12.8027 17.5138L12.7963 17.509C12.6285 17.3821 12.4135 17.1704 12.0306 16.7874L8.98697 13.7438C8.59644 13.3533 7.96328 13.3533 7.57275 13.7438C7.18223 14.1344 7.18223 14.7675 7.57276 15.158L10.6163 18.2016L10.6572 18.2425C10.9837 18.5691 11.2978 18.8833 11.59 19.1043C11.9174 19.3518 12.3461 19.5846 12.8955 19.5597C13.4449 19.5347 13.8508 19.2641 14.1544 18.988C14.4254 18.7414 14.7098 18.4001 15.0054 18.0452L15.0423 18.0009L21.2939 10.4989Z" fill="url(#paint0_linear)"/>
<defs>
<linearGradient id="paint0_linear" x1="0.625" y1="14.4509" x2="28.1782" y2="14.4509" gradientUnits="userSpaceOnUse">
<stop stop-color="#FFE259"/>
<stop offset="1" stop-color="#FFA751"/>
</linearGradient>
</defs>
</svg>
