<svg width="18" height="18" viewBox="0 0 18 18" fill="none" xmlns="http://www.w3.org/2000/svg">
<path fill-rule="evenodd" clip-rule="evenodd" d="M0 9C0 16.4115 1.5885 18 9 18C16.4115 18 18 16.4115 18 9C18 6.96306 17.88 5.36595 17.5521 4.12078C16.7126 5.03897 15.6532 6.1431 14.5026 7.12657C12.8706 8.52141 10.8941 9.81818 9 9.81818C7.10589 9.81818 5.12941 8.52141 3.49745 7.12657C2.34679 6.1431 1.2874 5.03897 0.447866 4.12078C0.119987 5.36595 0 6.96306 0 9ZM6 12.2727C5.58579 12.2727 5.25 12.639 5.25 13.0909C5.25 13.5428 5.58579 13.9091 6 13.9091H12C12.4142 13.9091 12.75 13.5428 12.75 13.0909C12.75 12.639 12.4142 12.2727 12 12.2727H6Z" fill="#333333"/>
<path d="M13.5775 5.83847C14.854 4.74736 16.0197 3.49144 16.8985 2.51436C15.7073 0.550308 13.3623 0 9 0C4.6377 0 2.29268 0.550308 1.1015 2.51436C1.98031 3.49144 3.14595 4.74736 4.42255 5.83847C6.03059 7.21286 7.65411 8.18182 9 8.18182C10.3459 8.18182 11.9694 7.21286 13.5775 5.83847Z" fill="#333333"/>
</svg>
