<svg width="25" height="30" viewBox="0 0 25 30" fill="none" xmlns="http://www.w3.org/2000/svg">
<path d="M19.4289 9.07323C14.4985 9.89697 10.3416 9.8728 5.55417 9.06654C2.28733 8.51636 -0.650081 11.4628 0.125732 14.7717L2.88716 26.5491C3.3618 28.5735 5.12343 30 7.14871 30H17.8566C19.8819 30 21.6436 28.5735 22.1182 26.5492L24.8743 14.7943C25.6514 11.4802 22.7016 8.52644 19.4289 9.07323Z" fill="#333333"/>
<path fill-rule="evenodd" clip-rule="evenodd" d="M11.7105 2.52632C9.31246 2.52632 7.36844 4.59994 7.36843 7.15789L7.36842 14.4544C7.36842 15.152 6.83823 15.7176 6.18421 15.7176C5.53019 15.7176 5 15.152 5 14.4544L5.00001 7.15788C5.00002 3.20469 8.00442 0 11.7105 0H13.2895C16.9956 0 20 3.2047 20 7.1579V14.7368C20 15.4345 19.4698 16 18.8158 16C18.1618 16 17.6316 15.4345 17.6316 14.7368V7.1579C17.6316 4.59995 15.6876 2.52632 13.2895 2.52632H11.7105Z" fill="#333333"/>
</svg>
