<svg width="27" height="30" viewBox="0 0 27 30" fill="none" xmlns="http://www.w3.org/2000/svg">
<path fill-rule="evenodd" clip-rule="evenodd" d="M17.7057 1.82056C15.421 -0.606857 11.5632 -0.606851 9.27854 1.82057L1.57271 10.008C0.562506 11.0814 0 12.4998 0 13.9737V23.2193C0 26.2748 2.37577 28.8037 5.42533 28.9943L13.5013 29.499L21.5747 28.9944C24.6256 28.8038 27.0018 26.2728 27 23.216L26.9945 13.9812C26.9936 12.5084 26.4312 11.0914 25.4218 10.0189L17.7057 1.82056ZM13.2994 16.7059C13.4233 16.6299 13.5793 16.6299 13.7031 16.7059L16.7892 18.6008C16.9034 18.671 16.9731 18.7955 16.9731 18.9296V22.939C16.9731 23.5781 17.4912 24.0963 18.1303 24.0963C18.7694 24.0963 19.2876 23.5781 19.2876 22.939V18.9296C19.2876 17.9909 18.8001 17.1196 18.0003 16.6285L14.9142 14.7336C14.0475 14.2013 12.9551 14.2013 12.0884 14.7336L9.00234 16.6285C8.20246 17.1196 7.71503 17.9909 7.71503 18.9296V22.939C7.71503 23.5781 8.23315 24.0963 8.87228 24.0963C9.51142 24.0963 10.0295 23.5781 10.0295 22.939V18.9296C10.0295 18.7955 10.0992 18.671 10.2134 18.6008L13.2994 16.7059Z" fill="#333333"/>
</svg>
