<svg width="22" height="30" viewBox="0 0 22 30" fill="none" xmlns="http://www.w3.org/2000/svg">
<path d="M2 28.9997L2 1.93311" stroke="#292D32" stroke-width="1.5" stroke-linecap="round"/>
<path d="M15.34 10.7072L20.4757 15.1485C20.6105 15.265 20.6778 15.3233 20.6675 15.3764C20.6643 15.3928 20.6571 15.4085 20.6466 15.4222C20.6123 15.4667 20.5183 15.4667 20.3304 15.4667L11.9989 15.4667L2.16615 15.4667C2.09595 15.4667 2.06085 15.4667 2.03709 15.4494C2.02939 15.4438 2.0227 15.4371 2.01726 15.4293C2.00044 15.4053 2.00138 15.3706 2.00327 15.3012L2.25662 5.96674C2.25878 5.8872 2.25986 5.84743 2.28164 5.81912C2.28866 5.81001 2.29703 5.80195 2.30644 5.79528C2.33567 5.77454 2.37589 5.7746 2.45635 5.77471L7.42347 5.78157L9.48813 5.78437L13.6174 5.79007L17.7467 5.79576L20.3872 5.79941C20.557 5.79965 20.642 5.79976 20.6675 5.84181C20.6754 5.8548 20.6798 5.8698 20.6804 5.88555C20.6822 5.9365 20.6143 5.99395 20.4783 6.10884L15.3574 10.437C15.2889 10.4949 15.2547 10.5239 15.2463 10.559C15.2436 10.5703 15.2429 10.5818 15.2441 10.5929C15.248 10.6276 15.2787 10.6541 15.34 10.7072Z" fill="#333333" stroke="#292D32" stroke-width="1.5" stroke-linejoin="round"/>
<ellipse cx="2.00002" cy="1.93333" rx="2.00002" ry="1.93333" fill="#333333"/>
</svg>
