<svg width="33" height="31" viewBox="0 0 33 31" fill="none" xmlns="http://www.w3.org/2000/svg">
<path d="M15.8202 2.21642C16.0341 1.55807 16.9655 1.55807 17.1794 2.21642L20.0065 10.9171C20.1021 11.2115 20.3765 11.4109 20.6861 11.4109H29.8345C30.5267 11.4109 30.8146 12.2967 30.2545 12.7035L22.8533 18.0809C22.6028 18.2628 22.498 18.5854 22.5937 18.8798L25.4207 27.5805C25.6346 28.2388 24.8811 28.7863 24.3211 28.3794L16.9199 23.0021C16.6694 22.8201 16.3303 22.8201 16.0798 23.0021L8.67858 28.3794C8.11855 28.7863 7.36504 28.2388 7.57895 27.5805L10.406 18.8798C10.5016 18.5854 10.3968 18.2628 10.1464 18.0809L2.74515 12.7035C2.18512 12.2967 2.47294 11.4109 3.16517 11.4109H12.3136C12.6232 11.4109 12.8975 11.2115 12.9932 10.9171L15.8202 2.21642Z" fill="#333333"/>
<path fill-rule="evenodd" clip-rule="evenodd" d="M14.363 1.74324C15.0353 -0.325887 17.9625 -0.325855 18.6348 1.74324L21.2784 9.87961H29.8335C32.0091 9.87961 32.9137 12.6636 31.1536 13.9424L24.2324 18.9709L26.8761 27.1073C27.5483 29.1764 25.1802 30.897 23.4201 29.6182L16.4989 24.5896L9.57766 29.6182C7.81755 30.897 5.44939 29.1764 6.12168 27.1073L8.76534 18.9709L1.84413 13.9424C0.0840331 12.6636 0.988625 9.87961 3.1642 9.87961H11.7193L14.363 1.74324ZM16.4989 5.08003L14.4485 11.3903C14.1479 12.3156 13.2856 12.9421 12.3126 12.9421H5.67765L11.0455 16.8421C11.8326 17.4139 12.162 18.4276 11.8613 19.353L9.81098 25.6632L15.1788 21.7633C15.9659 21.1914 17.0318 21.1914 17.8189 21.7633L23.1867 25.6632L21.1364 19.353C20.8358 18.4276 21.1651 17.4139 21.9523 16.8421L27.3201 12.9421H20.6851C19.7122 12.9421 18.8498 12.3156 18.5492 11.3903L16.4989 5.08003Z" fill="#333333"/>
</svg>
