<svg width="15" height="9" viewBox="0 0 15 9" fill="none" xmlns="http://www.w3.org/2000/svg">
<path fill-rule="evenodd" clip-rule="evenodd" d="M0.210543 4.50035C0.210543 4.63295 0.265166 4.76013 0.362397 4.8539C0.459629 4.94767 0.591503 5.00035 0.729009 5.00035L12.9575 5.00035L9.69432 8.14634C9.64612 8.19283 9.60788 8.24802 9.58179 8.30876C9.5557 8.3695 9.54227 8.4346 9.54227 8.50034C9.54227 8.56609 9.5557 8.63119 9.58179 8.69193C9.60788 8.75267 9.64612 8.80786 9.69432 8.85435C9.74253 8.90083 9.79975 8.93771 9.86274 8.96287C9.92572 8.98803 9.99322 9.00098 10.0614 9.00098C10.1296 9.00098 10.1971 8.98803 10.2601 8.96287C10.323 8.93771 10.3803 8.90083 10.4285 8.85435L14.5762 4.85435C14.6245 4.8079 14.6628 4.75272 14.6889 4.69198C14.7151 4.63123 14.7285 4.56611 14.7285 4.50035C14.7285 4.43458 14.7151 4.36946 14.6889 4.30871C14.6628 4.24797 14.6245 4.19279 14.5762 4.14635L10.4285 0.146345C10.3803 0.0998573 10.323 0.0629807 10.2601 0.0378218C10.1971 0.0126629 10.1296 -0.000286102 10.0614 -0.000286102C9.99322 -0.000286102 9.92572 0.0126629 9.86274 0.0378218C9.79975 0.0629807 9.74253 0.0998573 9.69432 0.146345C9.64612 0.192833 9.60788 0.248022 9.58179 0.308762C9.5557 0.369501 9.54227 0.434602 9.54227 0.500345C9.54227 0.566089 9.5557 0.631189 9.58179 0.691929C9.60788 0.752668 9.64612 0.807858 9.69432 0.854345L12.9575 4.00035L0.729009 4.00035C0.591503 4.00035 0.459629 4.05302 0.362397 4.14679C0.265166 4.24056 0.210543 4.36774 0.210543 4.50035Z" fill="#333333"/>
</svg>
